<?xml version="1.0" encoding="utf-8"?>
<!-- Generator: Adobe Illustrator 19.1.0, SVG Export Plug-In . SVG Version: 6.00 Build 0)  -->
<svg version="1.1" id="Layer_1" xmlns="http://www.w3.org/2000/svg" xmlns:xlink="http://www.w3.org/1999/xlink" x="0px" y="0px"
	 viewBox="-2603.6 1607.6 394.5 285.8" style="enable-background:new -2603.6 1607.6 394.5 285.8;" xml:space="preserve">
<style type="text/css">
	.st0{fill:#FFFFFF;}
</style>
<path class="st0" d="M-2333.6,1793c-0.2-1.4-3.7-0.8-9.6-1.8l0,0c0,0-3.4-0.8-18.2-8.7c14.8,7,22.4,5.9,24.6,5.1l0.7-0.4l0.9-0.5
	c7.5-4.6,18.1-13.3,20.4-16.7c1.8-2.6-2.4-23.9-5.7-39.7c6.3-0.9,9.9-1.5,9.9-1.5c35.7-11.4,70.1-29.2,101.5-53.2
	c-36.3,12.8-76.5,22.3-110.6,28.5c-2.8-12.1-5-33-10.5-46.1c-10.9-26.2-16-51.3-28.2-50.2c-11,1-25.2,6-46.2,6s-31.6-6.5-42.3-6.2
	c-13.2,0.4-18.7,21-30,48.3c-6.2,15.1-10,31.3-11.3,37.4c0,0,13.6,6.8,32.1,11.7c13.5,3.6,29.6,6.1,41,7.2c0.8,0.1,1.6,0.1,2.4,0.2
	c0.4,0.2-1.3,0.4-7.4,0.4c-59.9-1.1-119.7-12.7-183.5-34.8c31,23.5,64.8,40.7,99.9,51.7c0.2,0.2,6.2,1.1,16,2.3
	c-3.3,16.2-6.9,35.8-5.3,38.1c2.1,3,10.9,11,18.3,15c15.5,6,33.6-3.4,33.6-3.4s3.2-1.7,5.8-3c8.7-4.7,19.6-10.3,23.8-12.1
	c2.1-0.9,4.9-2.5,7.2-2.5c2.6,0,5.6,1.9,7.9,2.9c5.9,2.5,11.7,5.3,17.5,8.1c-0.5-0.3-8.3-1.9-15.9-2.8c-8.3-0.9-2.8,7.6-1,10.1
	c0,0,0,0,0.1,0c0.3,0.4,0.5,0.7,0.5,0.7h-0.1l0,0c0,0-3.9-1.8-4.6-2.2l-1.7-0.8l-0.1,1.5h0.1l-3.1,37.7c0-0.1,0-0.3,0-0.4v0.4
	c0-0.1,0-0.2,0-0.3v0.2c-0.7-12.3-1.6-24.5-2.5-36.8c0-0.3,0-0.5-0.1-0.7l0,0c-0.2-2.4-0.7-1.6-2.9-0.7l-2.5,1.5h0.1l-10.2,6.3
	l0.1-0.1l-0.2,0.1c0.2-0.2,0.6-0.6,1.1-1v-0.1c1.1-1,2.7-2.5,4.3-4.2h0.1c3.2-3.4,6.1-7.4,4-9.3c-3.3-3.3-10.7,0.7-28,8.9
	c-16.4,9.4-23.7,8.4-23.7,8.4l0,0c-7.5,1-9.9,0.1-11.8,0.7c-1.1,0.4,2.2,19,2.5,19.4s1.9,1.8,2.6,2.1c0.7,0.3,2.6-0.3,4.2-0.7
	c2.7-0.6,18.4-9.9,18.4-9.9s-8.9,9.9-12.2,12.4c-3.3,2.5-3.9,2.8-4.6,3.6c-0.7,0.9,1.5,11.5,1.5,11.5s1.1,2.1,2.2,2.4
	c1.1,0.3,7.2-4.3,7.2-4.3l-2.3,7.9c0,0,7,5.8,8,7.5c2.5,4.4,13.8,21.6,18.6,25.3c13.6,10.5,26.6,24,26.6,24s9.1-9.5,22-20.3
	c8.6-7.1,18.1-19.1,18.1-19.1l10.9-16.8l5.3-4.4l5.7-13.8l-4.3-4l7.9-2.1l1.5-2.3C-2337.2,1810.7-2333.5,1793.8-2333.6,1793z
	 M-2383.8,1837.3L-2383.8,1837.3l0.4-0.7L-2383.8,1837.3z M-2424.9,1627.1c0,0,18.8,6.2,42.1-3.4
	C-2404.3,1643.4-2419.7,1631.4-2424.9,1627.1z M-2405.3,1758.1c-28.5,0-52.5-1.6-66.1-2.8l0,0c0,0-7,0.5-8.7,8.7
	c-0.1,0.5-0.2,0.9-0.3,1.2c-0.3,2.5-0.3,4.2,0.1,4.8c0,0,6.9,11.3,12.8,13.9c-1.3-0.6-2.7-1.4-4.2-2.3c-6.3-4-13.2-10.3-14.9-12.9
	c-1.5-2.2,2.2-21,5.6-36c2.4,0.3,5.1,0.5,7.8,0.8c-0.3,1.4-0.6,2.8-1,4.1c0.4,0.8,2.7,4.7,15.7,5.8c0.6,0,33.5,1.9,53.2,1.9
	c21.9,0,41.7-1,55.7-2.1c14.4-1.2,15.4-7,15.4-7l-0.7-4c2.8-0.3,5.5-0.7,7.9-1c3.4,14.6,7.7,35,6,37.4c-0.7,1.1-2.4,2.9-4.6,4.9
	c-0.1,0.1-0.2,0.2-0.2,0.2c-3.4,3.1-7.9,6.6-11.9,8.8c3.3-3.5,7-8.4,9.1-11.1c0.6-0.7,1.1-1.2,1.4-1.7c0,0,0.1-0.2,0.1-0.3v-0.2
	c-1.8-14.8-11.2-14.1-11.2-14.1l0,0C-2352,1756.5-2376.3,1758.1-2405.3,1758.1z M-2330.9,1800.4c0,0-2.3,10.8-3.8,16.4
	c-1.2,4.4,0.8,9.4,3,13.9c5.1,10.6,5.1,21.6,5.1,21.6s11-14.7,9.1-29.6c5.5,4,8.4,9.3,8.4,9.3S-2308.2,1800.8-2330.9,1800.4z"/>
</svg>
