<?xml version="1.0" encoding="utf-8"?>
<!-- Generator: Adobe Illustrator 19.2.1, SVG Export Plug-In . SVG Version: 6.00 Build 0)  -->
<svg version="1.1" id="Layer_1" xmlns="http://www.w3.org/2000/svg" xmlns:xlink="http://www.w3.org/1999/xlink" x="0px" y="0px"
	 viewBox="0 0 28 28" style="enable-background:new 0 0 28 28;" xml:space="preserve">
<style type="text/css">
	.st0{fill:#EDF3F2;}
</style>
<rect x="0" class="st0" width="11.5" height="4.1"/>
<rect x="-3.7" y="3.7" transform="matrix(4.482529e-11 1 -1 4.482529e-11 7.7824 3.6814)" class="st0" width="11.5" height="4.1"/>
<rect x="16.5" y="23.9" transform="matrix(-1 -8.980917e-11 8.980917e-11 -1 44.5363 51.899)" class="st0" width="11.5" height="4.1"/>
<rect x="20.2" y="20.2" transform="matrix(4.506268e-11 -1 1 4.506268e-11 3.6814 48.2176)" class="st0" width="11.5" height="4.1"/>
<rect x="20.2" y="3.7" transform="matrix(-1.347138e-10 1 -1 -1.347138e-10 31.6814 -20.2176)" class="st0" width="11.5" height="4.1"/>
<rect x="16.5" y="0" transform="matrix(-1 -8.996771e-11 8.996771e-11 -1 44.5363 4.101)" class="st0" width="11.5" height="4.1"/>
<rect x="-3.7" y="20.2" transform="matrix(4.490459e-11 -1 1 4.490459e-11 -20.2176 24.3186)" class="st0" width="11.5" height="4.1"/>
<rect x="0" y="23.9" class="st0" width="11.5" height="4.1"/>
</svg>
