<?xml version="1.0" encoding="utf-8"?>
<!-- Generator: Adobe Illustrator 19.1.0, SVG Export Plug-In . SVG Version: 6.00 Build 0)  -->
<svg version="1.1" id="Layer_1" xmlns="http://www.w3.org/2000/svg" xmlns:xlink="http://www.w3.org/1999/xlink" x="0px" y="0px"
	 viewBox="-1485 987 28 28" style="enable-background:new -1485 987 28 28;" xml:space="preserve">
<style type="text/css">
	.st0{fill:#17181C;}
</style>
<g>
	<path class="st0" d="M-1465.2,996.8c0,1.3,0,2.5,0,3.8c-1,0-2,0-3,0c-0.1,0-0.2,0-0.4,0c0,0.1,0,0.2,0,0.3
		c-0.1,0.2-0.1,0.4-0.1,0.6c0,3.4,0,7,0,10.4c-1.6,0-3.2,0-4.9,0c-0.1-0.1-0.1-0.2-0.1-0.3c0-3.6,0-7.2,0-10.8c0-0.1,0-0.2,0-0.2
		c0-0.1,0-0.1-0.1-0.1c-0.1,0-0.1,0-0.2,0c-0.8,0-1.7,0-2.5,0c-0.1,0-0.2,0-0.3-0.1c0-1.2,0-2.4,0-3.6c0.1-0.1,0.2-0.1,0.3-0.1
		c0.9,0,1.8,0,2.7,0c0.1,0,0.1,0,0.1-0.1c0-0.4,0-0.9,0-1.3c0-0.5,0-0.9,0.1-1.4c0-0.1,0-0.3,0.1-0.4c0.1-0.5,0.2-0.9,0.5-1.2
		c0.1-0.2,0.3-0.4,0.4-0.6c0.3-0.3,0.6-0.6,1-0.9c0.3-0.2,0.7-0.4,1.1-0.5c0.3-0.1,0.5-0.2,0.9-0.1c0,0,0,0,0-0.1c1.3,0,2.7,0,4,0
		c0,0,0,0.1,0.1,0.1s0.2,0,0.3,0c0,1.3,0,2.5,0,3.8c-0.7,0-1.3,0-2,0c-0.1,0-0.3,0-0.4,0.1c-0.3,0.1-0.6,0.3-0.8,0.7
		c-0.1,0.1-0.2,0.3-0.2,0.5c-0.1,0.4-0.1,0.8-0.1,1.2c0,0.1,0.1,0.1,0.1,0.1c0.1,0,0.1,0,0.2,0
		C-1467.3,996.8-1466.2,996.8-1465.2,996.8z"/>
</g>
</svg>
