<?xml version="1.0" encoding="utf-8"?>
<!-- Generator: Adobe Illustrator 19.1.0, SVG Export Plug-In . SVG Version: 6.00 Build 0)  -->
<svg version="1.1" id="Layer_1" xmlns="http://www.w3.org/2000/svg" xmlns:xlink="http://www.w3.org/1999/xlink" x="0px" y="0px"
	 viewBox="0 0 28 28" style="enable-background:new 0 0 28 28;" xml:space="preserve">
<style type="text/css">
	.st0{fill:#EDF3F2;}
</style>
<g>
	<path class="st0" d="M19.8,9.8c0,1.3,0,2.5,0,3.8c-1,0-2,0-3,0c-0.1,0-0.2,0-0.4,0c0,0.1,0,0.2,0,0.3c-0.1,0.2-0.1,0.4-0.1,0.6
		c0,3.4,0,7,0,10.4c-1.6,0-3.2,0-4.9,0c-0.1-0.1-0.1-0.2-0.1-0.3c0-3.6,0-7.2,0-10.8c0-0.1,0-0.2,0-0.2c0-0.1,0-0.1-0.1-0.1
		c-0.1,0-0.1,0-0.2,0c-0.8,0-1.7,0-2.5,0c-0.1,0-0.2,0-0.3-0.1c0-1.2,0-2.4,0-3.6c0.1-0.1,0.2-0.1,0.3-0.1c0.9,0,1.8,0,2.7,0
		c0.1,0,0.1,0,0.1-0.1c0-0.4,0-0.9,0-1.3c0-0.5,0-0.9,0.1-1.4c0-0.1,0-0.3,0.1-0.4C11.6,6,11.7,5.6,12,5.3c0.1-0.2,0.3-0.4,0.4-0.6
		c0.3-0.3,0.6-0.6,1-0.9c0.3-0.2,0.7-0.4,1.1-0.5c0.3-0.1,0.5-0.2,0.9-0.1c0,0,0,0,0-0.1c1.3,0,2.7,0,4,0c0,0,0,0.1,0.1,0.1
		s0.2,0,0.3,0c0,1.3,0,2.5,0,3.8c-0.7,0-1.3,0-2,0c-0.1,0-0.3,0-0.4,0.1c-0.3,0.1-0.6,0.3-0.8,0.7c-0.1,0.1-0.2,0.3-0.2,0.5
		c-0.1,0.4-0.1,0.8-0.1,1.2c0,0.1,0.1,0.1,0.1,0.1c0.1,0,0.1,0,0.2,0C17.7,9.8,18.8,9.8,19.8,9.8z"/>
</g>
</svg>
