<svg id="Layer_1" data-name="Layer 1" xmlns="http://www.w3.org/2000/svg" viewBox="0 0 67.37 65.98"><title>g</title><path d="M161.57,208.47V177.2h2.23a47.9,47.9,0,0,1,9.87,1A35.55,35.55,0,0,1,182,181a32.38,32.38,0,0,1,13.13,12,33,33,0,0,1,2.16,29.69,32.37,32.37,0,0,1-7.37,10.7,33.8,33.8,0,0,1-47.67,0A31.78,31.78,0,0,1,135,222.53a35.23,35.23,0,0,1-2.5-13.33,32.7,32.7,0,0,1,2.87-13.65,41.33,41.33,0,0,1,8.87-12.24l5.87,5.78a35.23,35.23,0,0,0-7.32,9.86,24.26,24.26,0,0,0-2.37,10.53,26.12,26.12,0,0,0,.91,7,21.34,21.34,0,0,0,2.73,6.08,24.91,24.91,0,0,0,9.35,8.74,26.59,26.59,0,0,0,30.81-4.1,23.72,23.72,0,0,0,5.48-7.8,22.88,22.88,0,0,0,1.93-9.26,22.58,22.58,0,0,0-6-15.86q-6-6.48-15.92-7.8v22h-8.19Z" transform="translate(-132.5 -177.2)" style="fill:#fff"/></svg>