<svg id="Ñëîé_11" data-name="Ñëîé 11" xmlns="http://www.w3.org/2000/svg" viewBox="0 0 67.05 51.05"><title>icono14</title><path d="M196.51,401H181.67l0.64,0.64a3.81,3.81,0,1,0,6.43,3.45h1.68a3.8,3.8,0,0,0,7.52-.6,2.94,2.94,0,0,1-.59-1Zm-34.08,0H147.58l-0.82,2.48a3,3,0,0,1-.6,1,3.8,3.8,0,0,0,7.53.6h1.68a3.81,3.81,0,1,0,6.43-3.45Zm-1.35-37.87,3.11,1.33,2.18-.73-3.05-1.31,8.73-3.75,8.73,3.75-3.05,1.31,2.18,0.72,3.11-1.33a0.76,0.76,0,0,0,0-1.4l-10.66-4.57a0.76,0.76,0,0,0-.6,0l-10.67,4.57A0.76,0.76,0,0,0,161.08,363.17Zm9.14,24.19a0.85,0.85,0,0,0,.28-0.69,0.74,0.74,0,0,0-.3-0.66,1.63,1.63,0,0,0-.91-0.2H168.7v1.78h0.62A1.42,1.42,0,0,0,170.22,387.36ZM140,389.9v3h64v-8.38a7.5,7.5,0,0,0,0-.76,4.81,4.81,0,0,0-.11-0.75l-2.74-13.74a1,1,0,0,0-.91-0.75h-19V367l-4.57-1.52h-9.14L162.91,367v1.53H145.38a1.1,1.1,0,0,0-1,.73l-0.7,2.32h7a1.53,1.53,0,0,1,1.52,1.52v7.62a1.53,1.53,0,0,1-1.52,1.52H140.5l-0.24.79a6,6,0,0,0-.15.73,7.64,7.64,0,0,0-.06.76v2.28A1.53,1.53,0,0,0,140,389.9Zm36.13-4.08h-1.6v4.68h-0.89v-4.68h-1.6v-0.77h4.1v0.77Zm1.72,4.68H177v-5.45h0.89v5.45Zm4.06-.34a2.3,2.3,0,0,1-1.45.41,3.45,3.45,0,0,1-1.51-.29v-0.84a4.08,4.08,0,0,0,.79.28,3.4,3.4,0,0,0,.78.1,1.25,1.25,0,0,0,.78-0.2,0.65,0.65,0,0,0,.25-0.54,0.68,0.68,0,0,0-.23-0.52,3.38,3.38,0,0,0-1-.5,2.52,2.52,0,0,1-1.05-.69,1.45,1.45,0,0,1-.31-0.93,1.3,1.3,0,0,1,.49-1.08,2,2,0,0,1,1.3-.39,3.79,3.79,0,0,1,1.56.34l-0.29.73a3.42,3.42,0,0,0-1.3-.31,1,1,0,0,0-.66.19,0.63,0.63,0,0,0-.23.5,0.69,0.69,0,0,0,.09.36,0.9,0.9,0,0,0,.29.29,4.88,4.88,0,0,0,.74.36,4.09,4.09,0,0,1,.88.46,1.42,1.42,0,0,1,.41.49,1.51,1.51,0,0,1,.13.64A1.37,1.37,0,0,1,182,390.17Zm8.45,0.34h-1.1l-2.68-4.34h0l0,0.24c0,0.46.05,0.88,0.05,1.26v2.83h-0.81v-5.45H187l2.67,4.32h0c0-.06,0-0.27,0-0.63s0-.64,0-0.84v-2.86h0.82v5.45Zm5.68-.22a5.87,5.87,0,0,1-.94.23,6.73,6.73,0,0,1-1,.07,2.47,2.47,0,0,1-1.91-.73,3,3,0,0,1-.67-2.07,2.74,2.74,0,0,1,.76-2.06,2.85,2.85,0,0,1,2.08-.74,4,4,0,0,1,1.62.33l-0.31.74a3.17,3.17,0,0,0-1.33-.31,1.79,1.79,0,0,0-1.38.55,2.13,2.13,0,0,0-.51,1.5,2.24,2.24,0,0,0,.46,1.52,1.65,1.65,0,0,0,1.31.52,4.17,4.17,0,0,0,.93-0.11v-1.4h-1.13v-0.76h2v2.73Zm-10.32-17.15a1.52,1.52,0,0,1,1.52-1.52h9.14a1.52,1.52,0,0,1,1.52,1.52v7.62a1.53,1.53,0,0,1-1.52,1.52h-9.14a1.53,1.53,0,0,1-1.52-1.52v-7.62Zm-2.22,11.92h0.89v5.45h-0.89v-5.45Zm-13-11.92a1.53,1.53,0,0,1,1.52-1.52h9.14a1.53,1.53,0,0,1,1.52,1.52v7.62a1.53,1.53,0,0,1-1.52,1.52H172a1.53,1.53,0,0,1-1.52-1.52v-7.62Zm-2.72,11.92h1.54a2.52,2.52,0,0,1,1.56.4,1.42,1.42,0,0,1,.51,1.19,1.49,1.49,0,0,1-1.06,1.45l1.54,2.41h-1l-1.31-2.17H168.7v2.17h-0.89v-5.45Zm-6.89,5.45H160l-1.9-5.45H159l1.14,3.39c0.06,0.16.12,0.37,0.19,0.62s0.11,0.45.13,0.57a6.51,6.51,0,0,1,.15-0.66c0.07-.25.12-0.43,0.16-0.56l1.14-3.37h0.92Zm5.71-4.7h-2.19v1.49h2.05V388h-2.05v1.71h2.19v0.75h-3.08v-5.45h3.08v0.75Zm-11.34-12.67a1.53,1.53,0,0,1,1.52-1.52H166a1.53,1.53,0,0,1,1.52,1.52v7.62a1.53,1.53,0,0,1-1.52,1.52h-9.14a1.53,1.53,0,0,1-1.52-1.52v-7.62Zm-2.09,11.92h1.69a2.78,2.78,0,0,1,2,.7,2.62,2.62,0,0,1,.72,2,2.73,2.73,0,0,1-.75,2.07,3,3,0,0,1-2.16.71h-1.52v-5.45Zm-3.73,0h1l2,5.47h-0.95L151,389H148.9l-0.53,1.51h-0.94Zm55.35,9.44H139.29a0.78,0.78,0,0,0-.76.76v1.52a0.78,0.78,0,0,0,.76.76,1,1,0,0,1,.95.73l1.16,4.63a1,1,0,0,0,.94.73h1.52a1.15,1.15,0,0,0,1-.72l1-3.14a1.14,1.14,0,0,1,1-.72h50.29a1.15,1.15,0,0,1,1,.72l1,3.14a1.15,1.15,0,0,0,1,.72h1.53a1,1,0,0,0,.94-0.73l1.16-4.63a1,1,0,0,1,.95-0.73,0.78,0.78,0,0,0,.76-0.76v-1.52A0.78,0.78,0,0,0,204.81,394.47Zm-48.12-6.71a1.68,1.68,0,0,0-1.83-2h-0.77v4h0.63A1.75,1.75,0,0,0,156.69,387.76Zm-6.45-1c0-.1-0.09-0.26-0.16-0.47s-0.11-.37-0.13-0.47a8.87,8.87,0,0,1-.29,1l-0.49,1.42h1.59Z" transform="translate(-138.52 -357.14)" style="fill:#fcfcfc"/></svg>