<svg id="Ñëîé_4" data-name="Ñëîé 4" xmlns="http://www.w3.org/2000/svg" viewBox="0 0 55.95 51.28"><title>icono7</title><path d="M301.34,156.77V191c0,2.48,1.4,4.22,2.66,4.22h3.42a7.43,7.43,0,0,0,1.25-4.22V156.77h-7.33Zm-2,34.19V145.89H252.72V191c0,3.43,2.09,6.22,4.66,6.22H304C301.43,197.17,299.34,194.39,299.34,191Zm-12.22-33.12a6.72,6.72,0,0,0,1.29.45,5.45,5.45,0,0,0,1.27.17,2,2,0,0,0,1.27-.33,1.07,1.07,0,0,0,.41-0.88,1.11,1.11,0,0,0-.38-0.84,5.7,5.7,0,0,0-1.56-.82,4.1,4.1,0,0,1-1.71-1.12,2.39,2.39,0,0,1-.5-1.52,2.14,2.14,0,0,1,.79-1.75,3.29,3.29,0,0,1,2.12-.64,6.21,6.21,0,0,1,2.54.56l-0.46,1.18a5.54,5.54,0,0,0-2.11-.5,1.63,1.63,0,0,0-1.07.31,1,1,0,0,0-.36.81,1.16,1.16,0,0,0,.14.59,1.49,1.49,0,0,0,.48.46,7.93,7.93,0,0,0,1.2.58,6.41,6.41,0,0,1,1.43.76,2.22,2.22,0,0,1,.67.79,2.39,2.39,0,0,1,.21,1A2.23,2.23,0,0,1,292,159a3.72,3.72,0,0,1-2.36.67,5.63,5.63,0,0,1-2.47-.47v-1.37Zm-10.81-7.16,1.27,5.17a22.34,22.34,0,0,1,.42,2.2c0-.34.11-0.73,0.2-1.15s0.17-.77.24-1l1.44-5.18h1.44l1.48,5.21a19.15,19.15,0,0,1,.45,2.16,15.05,15.05,0,0,1,.44-2.21l1.26-5.16h1.47l-2.31,8.88h-1.58L281,154.26c-0.06-.23-0.15-0.56-0.24-1s-0.15-.74-0.18-0.91c0,0.26-.11.6-0.2,1s-0.17.72-.23,0.92l-1.47,5.27h-1.58L276,155.11l-1.17-4.43h1.48Zm4.38,13.08v9.32h-9.32v-9.32h9.32ZM269,150.68h5v1.23h-3.57v2.42h3.35v1.21h-3.35v2.79H274v1.23h-5v-8.88Zm-9.73,0H261l4.35,7h0c0-.09,0-0.43,0-1s0-1,0-1.37v-4.65h1.33v8.88h-1.78l-4.36-7.07h0l0,0.39c0.06,0.75.08,1.44,0.08,2.06v4.62h-1.32v-8.88Zm-1.88,13.08h9.33v9.32h-9.33v-9.32ZM286.14,191h-28a0.78,0.78,0,1,1,0-1.55h28A0.78,0.78,0,1,1,286.14,191Zm0-3.11h-28a0.78,0.78,0,1,1,0-1.56h28A0.78,0.78,0,1,1,286.14,187.85Zm6.21-3.11H258.16a0.78,0.78,0,1,1,0-1.55h34.19A0.78,0.78,0,1,1,292.35,184.74Zm1.56-3.11H258.16a0.78,0.78,0,1,1,0-1.56h35.74A0.78,0.78,0,0,1,293.91,181.63Zm0-3.11H258.16a0.78,0.78,0,1,1,0-1.55h35.74A0.78,0.78,0,0,1,293.91,178.53Zm0.77-5.44h-9.33v-9.32h9.33v9.32Z" transform="translate(-252.72 -145.89)" style="fill:#f9f9f9"/></svg>