<svg id="Ñëîé_3" data-name="Ñëîé 3" xmlns="http://www.w3.org/2000/svg" viewBox="0 0 34.23 59.53"><title>icono6</title><path d="M184.7,141.77h-25.3a4.59,4.59,0,0,0-4.46,4.7V196.6a4.59,4.59,0,0,0,4.46,4.7h25.3a4.59,4.59,0,0,0,4.47-4.7h0V146.47A4.59,4.59,0,0,0,184.7,141.77Zm-17,3h8.68a0.75,0.75,0,1,1,0,1.49h-8.68A0.75,0.75,0,1,1,167.71,144.74ZM162,196.83a1.86,1.86,0,1,1,1.86-1.86A1.86,1.86,0,0,1,162,196.83Zm13.4,0h-6.7a1.86,1.86,0,1,1,0-3.72h6.7A1.86,1.86,0,0,1,175.4,196.83Zm6.7,0A1.86,1.86,0,1,1,184,195,1.86,1.86,0,0,1,182.09,196.83Zm4.09-6H157.91V147.72h28.28v43.16Zm-24.56-32.74h3a1.49,1.49,0,0,0,1.49-1.49v-3a1.49,1.49,0,0,0-1.49-1.49h-3a1.49,1.49,0,0,0-1.49,1.49v3A1.49,1.49,0,0,0,161.63,158.14Zm8.93,0h3a1.49,1.49,0,0,0,1.49-1.49v-3a1.49,1.49,0,0,0-1.49-1.49h-3a1.49,1.49,0,0,0-1.49,1.49v3A1.49,1.49,0,0,0,170.56,158.14Zm8.93,0h3a1.49,1.49,0,0,0,1.49-1.49v-3a1.49,1.49,0,0,0-1.49-1.49h-3a1.49,1.49,0,0,0-1.49,1.49v3A1.49,1.49,0,0,0,179.49,158.14Zm-17.86,8.93h3a1.49,1.49,0,0,0,1.49-1.49v-3a1.49,1.49,0,0,0-1.49-1.49h-3a1.49,1.49,0,0,0-1.49,1.49v3A1.49,1.49,0,0,0,161.63,167.07Zm8.93,0h3a1.49,1.49,0,0,0,1.49-1.49v-3a1.49,1.49,0,0,0-1.49-1.49h-3a1.49,1.49,0,0,0-1.49,1.49v3A1.49,1.49,0,0,0,170.56,167.07Zm8.93,0h3a1.49,1.49,0,0,0,1.49-1.49v-3a1.49,1.49,0,0,0-1.49-1.49h-3A1.49,1.49,0,0,0,178,162.6v3A1.49,1.49,0,0,0,179.49,167.07ZM161.63,176h3a1.49,1.49,0,0,0,1.49-1.49v-3A1.49,1.49,0,0,0,164.6,170h-3a1.49,1.49,0,0,0-1.49,1.49v3A1.49,1.49,0,0,0,161.63,176Zm8.93,0h3a1.49,1.49,0,0,0,1.49-1.49v-3a1.49,1.49,0,0,0-1.49-1.49h-3a1.49,1.49,0,0,0-1.49,1.49v3A1.49,1.49,0,0,0,170.56,176Zm-8.93,8.93h3a1.49,1.49,0,0,0,1.49-1.49v-3A1.49,1.49,0,0,0,164.6,179h-3a1.49,1.49,0,0,0-1.49,1.49v3A1.49,1.49,0,0,0,161.63,184.93Zm8.93,0h3a1.49,1.49,0,0,0,1.49-1.49v-3a1.49,1.49,0,0,0-1.49-1.49h-3a1.49,1.49,0,0,0-1.49,1.49v3A1.49,1.49,0,0,0,170.56,184.93Zm8.93-8.93h3a1.49,1.49,0,0,0,1.49-1.49v-3a1.49,1.49,0,0,0-1.49-1.49h-3a1.49,1.49,0,0,0-1.49,1.49v3A1.49,1.49,0,0,0,179.49,176Z" transform="translate(-154.93 -141.77)" style="fill:#f9f9f9"/></svg>