<svg id="Ñëîé_7" data-name="Ñëîé 7" xmlns="http://www.w3.org/2000/svg" viewBox="0 0 62.54 54.56"><title>icono2</title><path d="M198.38,51.83H152.3a2.83,2.83,0,0,0-.1-0.76,3.07,3.07,0,0,0-.77-1.46A3.28,3.28,0,0,0,149,48.54a3.31,3.31,0,0,0-3.28,3,1.87,1.87,0,0,0,0,.31c-2.72,0-4.94,1.88-4.94,4.18V83.86c0,2.3,2.22,4.18,4.94,4.18h52.66c2.72,0,4.94-1.88,4.94-4.18V56C203.32,53.71,201.1,51.83,198.38,51.83ZM158.06,83.1a13.17,13.17,0,1,1,13.16-13.17A13.17,13.17,0,0,1,158.06,83.1Zm22.22-4.94a4.94,4.94,0,1,1,4.94-4.94A4.94,4.94,0,0,1,180.27,78.16Zm13.17,0a4.94,4.94,0,1,1,4.94-4.94A4.94,4.94,0,0,1,193.44,78.16Zm4.94-16.46c0,0.91-.37,1.65-0.82,1.65h-7.41V58.41H188.5v4.94H172.87c-0.45,0-.82-0.74-0.82-1.65V58.41c0-.9.37-1.64,0.82-1.64h24.69c0.45,0,.82.74,0.82,1.64V61.7Zm-40.32-3a0.59,0.59,0,0,0-.59.59V80.53a0.59,0.59,0,0,0,1.18,0V59.33A0.59,0.59,0,0,0,158.06,58.74Zm-2.36.59a0.59,0.59,0,0,0-.59.59v20a0.59,0.59,0,0,0,1.18,0v-20A0.59,0.59,0,0,0,155.7,59.33ZM151,61.68a0.59,0.59,0,0,0-.59.59V77.59a0.59,0.59,0,1,0,1.18,0V62.27A0.59,0.59,0,0,0,151,61.68Zm2.36-1.77a0.59,0.59,0,0,0-.59.59V79.36a0.59,0.59,0,1,0,1.18,0V60.51A0.59,0.59,0,0,0,153.35,59.92Zm7.07-.59a0.59,0.59,0,0,0-.59.59v20a0.59,0.59,0,0,0,1.18,0v-20A0.59,0.59,0,0,0,160.41,59.33Zm-11.78,4.12A0.59,0.59,0,0,0,148,64V75.82a0.59,0.59,0,1,0,1.18,0V64A0.59,0.59,0,0,0,148.64,63.45ZM166.89,64V75.82a0.59,0.59,0,1,0,1.18,0V64A0.59,0.59,0,1,0,166.89,64Zm-1.77-2.36a0.59,0.59,0,0,0-.59.59V77.59a0.59,0.59,0,1,0,1.18,0V62.27A0.59,0.59,0,0,0,165.13,61.68Zm-2.36-1.77a0.59,0.59,0,0,0-.59.59V79.36a0.59,0.59,0,1,0,1.18,0V60.51A0.59,0.59,0,0,0,162.77,59.92Zm17.5,10a3.29,3.29,0,1,0,3.29,3.29A3.29,3.29,0,0,0,180.27,69.93Zm13.17,0a3.29,3.29,0,1,0,3.29,3.29A3.29,3.29,0,0,0,193.44,69.93Zm-38.16-20.1,44.17-14.72a0.84,0.84,0,0,0-.54-1.6L153.26,48.73a5.19,5.19,0,0,1,.64,1.1h1.38Z" transform="translate(-140.78 -33.47)" style="fill:#f9f9f9"/></svg>