<svg id="Ñëîé_12" data-name="Ñëîé 12" xmlns="http://www.w3.org/2000/svg" viewBox="0 0 73.22 39.94"><title>icono15</title><path d="M253.58,395.38a6.66,6.66,0,1,0,6.65,6.65A6.66,6.66,0,0,0,253.58,395.38Zm0,10A3.33,3.33,0,1,1,256.9,402,3.33,3.33,0,0,1,253.58,405.36Zm44.92-10a6.66,6.66,0,1,0,6.66,6.65A6.66,6.66,0,0,0,298.5,395.38Zm0,10a3.33,3.33,0,1,1,3.33-3.33A3.33,3.33,0,0,1,298.5,405.36Zm-9-17.33a1.36,1.36,0,0,0-.75-0.17H288.3v1.46h0.51a1.16,1.16,0,0,0,.74-0.19,0.68,0.68,0,0,0,.23-0.57A0.6,0.6,0,0,0,289.53,388Zm24.78,7.34a0.85,0.85,0,0,1-.83-0.83v-0.83h-0.83a1.13,1.13,0,0,1-.83-1.25V390a1.13,1.13,0,0,1,.83-1.25h0.83v-4.16a13.8,13.8,0,0,0-.1-1.66l-1.46-13.31a1,1,0,0,0-.94-0.83H271a4.38,4.38,0,0,0-1.58.37L257.65,375a2.19,2.19,0,0,0-1,1.16l-2.86,10.05a2,2,0,0,1-1,1.11l-6.79,2.7a1.83,1.83,0,0,0-.47.31h0.12a1.12,1.12,0,0,1,1.25.83v1.66a1.12,1.12,0,0,1-1.25.83h-1.53l-0.28.88a1.25,1.25,0,0,1-1.1.78,0.84,0.84,0,0,0-.83.83v1.66a2.31,2.31,0,0,0,.2.83,1.85,1.85,0,0,0,.38.58l2.16,2.16a1.54,1.54,0,0,0,.26.2,8.65,8.65,0,0,1,17.29.38h27.62a8.66,8.66,0,0,1,17.31,0h5.49a1.47,1.47,0,0,0,1.2-.75l0.93-1.83a3.37,3.37,0,0,0,.25-0.75,4.13,4.13,0,0,0,.12-0.83v-1.66A0.84,0.84,0,0,0,314.31,395.38Zm-10.82-20.8a0.84,0.84,0,0,1,.83-0.83h5a0.84,0.84,0,0,1,.83.83v10a0.84,0.84,0,0,1-.83.83h-5a0.83,0.83,0,0,1-.83-0.83v-10Zm-30,0a0.83,0.83,0,0,1,.83-0.83h10a0.84,0.84,0,0,1,.83.83v10a0.84,0.84,0,0,1-.83.83h-10a0.83,0.83,0,0,1-.83-0.83v-10ZM269.38,392h-1.66a0.83,0.83,0,0,1,0-1.66h1.66A0.83,0.83,0,1,1,269.38,392Zm0.83-5.83a0.84,0.84,0,0,1-.83.84H257.73a0.68,0.68,0,0,1-.7-0.82l1.39-8.35a1,1,0,0,1,1-.82h10a0.84,0.84,0,0,1,.83.83v8.32Zm4,5.5-0.44-1.24h-1.71l-0.44,1.24h-0.77l1.67-4.49h0.79l1.67,4.49h-0.78Zm4.39-.58a2.47,2.47,0,0,1-1.77.58h-1.25v-4.47H277a2.3,2.3,0,0,1,1.66.57,2.16,2.16,0,0,1,.59,1.62A2.23,2.23,0,0,1,278.6,391.14Zm3.31,0.58h-0.77l-1.56-4.47h0.75l0.93,2.78a4.81,4.81,0,0,1,.15.51,4.47,4.47,0,0,1,.11.47,5.16,5.16,0,0,1,.12-0.54,3.74,3.74,0,0,1,.14-0.45l0.93-2.77h0.76Zm4.69-3.85h-1.8v1.21h1.68v0.61h-1.68v1.41h1.8v0.62h-2.53v-4.47h2.53v0.62Zm3.49,3.85L289,389.94H288.3v1.79h-0.73v-4.47h1.26a2.06,2.06,0,0,1,1.28.32,1.16,1.16,0,0,1,.41,1,1.22,1.22,0,0,1-.87,1.19l1.26,2h-0.83Zm4.34-3.84h-1.32v3.84h-0.73v-3.84h-1.32v-0.63h3.37v0.63Zm1.41,3.84h-0.73v-4.47h0.73v4.47Zm3.33-.28a1.88,1.88,0,0,1-1.19.34,2.85,2.85,0,0,1-1.24-.24v-0.69a3.7,3.7,0,0,0,.65.22,2.79,2.79,0,0,0,.64.08,1,1,0,0,0,.64-0.17,0.54,0.54,0,0,0,.21-0.44,0.55,0.55,0,0,0-.19-0.42,2.74,2.74,0,0,0-.78-0.42,2.06,2.06,0,0,1-.86-0.56,1.2,1.2,0,0,1-.25-0.77,1.08,1.08,0,0,1,.4-0.88,1.66,1.66,0,0,1,1.07-.32,3.18,3.18,0,0,1,1.28.28l-0.24.6a2.86,2.86,0,0,0-1.06-.25,0.84,0.84,0,0,0-.54.15,0.51,0.51,0,0,0-.18.41,0.6,0.6,0,0,0,.07.3,0.76,0.76,0,0,0,.24.23,3.88,3.88,0,0,0,.6.29,3.31,3.31,0,0,1,.72.38,1.13,1.13,0,0,1,.34.4,1.22,1.22,0,0,1,.11.53A1.13,1.13,0,0,1,299.18,391.45Zm1-6.88a0.83,0.83,0,0,1-.83.83h-10a0.83,0.83,0,0,1-.83-0.83v-10a0.83,0.83,0,0,1,.83-0.83h10a0.83,0.83,0,0,1,.83.83v10Zm1,7.16h-0.73v-4.47h0.73v4.47Zm4.91,0h-0.9l-2.2-3.56h0v0.2c0,0.38,0,.72,0,1v2.32h-0.66v-4.47h0.88l2.2,3.54h0s0-.22,0-0.51,0-.52,0-0.69v-2.34h0.67v4.47Zm4.66-.18a4.57,4.57,0,0,1-.78.19,5.42,5.42,0,0,1-.8.06,2,2,0,0,1-1.56-.6,2.41,2.41,0,0,1-.55-1.7,2.29,2.29,0,0,1,.62-1.69,2.36,2.36,0,0,1,1.71-.61,3.33,3.33,0,0,1,1.33.27l-0.26.61a2.64,2.64,0,0,0-1.09-.25,1.47,1.47,0,0,0-1.13.45,1.76,1.76,0,0,0-.42,1.23,1.86,1.86,0,0,0,.38,1.25,1.36,1.36,0,0,0,1.08.43,3.48,3.48,0,0,0,.76-0.09v-1.15h-0.93V389.3h1.65v2.24Zm-33.82-3.68h-0.63v3.25h0.52a1.44,1.44,0,0,0,1.61-1.64A1.38,1.38,0,0,0,276.95,387.87Zm-3.92.38c-0.05-.17-0.09-0.3-0.11-0.38a7,7,0,0,1-.24.82l-0.4,1.16h1.3l-0.42-1.22C273.13,388.56,273.08,388.42,273,388.25Z" transform="translate(-241.93 -368.75)" style="fill:#fafbfc"/></svg>