<svg id="Ñëîé_16" data-name="Ñëîé 16" xmlns="http://www.w3.org/2000/svg" viewBox="0 0 41.08 61.62"><title>icono11</title><path d="M293.94,247.21L272,250.35h21.94v-3.13Zm-24.26,12-0.13-.41c-0.06-.19-0.1-0.33-0.12-0.41a7.57,7.57,0,0,1-.26.88l-0.43,1.25h1.39ZM258,252.35v56.48h41.08V252.35H258Zm34.71,5.43h2.71v0.66h-1.92v1.3h1.8v0.66h-1.8v1.5h1.92v0.67H292.7v-4.78Zm-5.24,0h0.94l2.35,3.79h0s0-.23,0-0.55,0-.56,0-0.74v-2.5h0.72v4.78h-1l-2.35-3.81h0l0,0.21c0,0.4,0,.78,0,1.11v2.49h-0.71v-4.78Zm-2,0h0.78v4.78h-0.78v-4.78ZM281.15,262l2.41-3.57h-2.35v-0.67h3.29v0.55l-2.42,3.56h2.49v0.67h-3.42V262Zm-2.86-4.26h0.85l1.79,4.8H280.1l-0.48-1.33h-1.83l-0.47,1.33H276.5Zm-5.59.6a2.48,2.48,0,0,1,1.83-.65,3.56,3.56,0,0,1,1.42.29l-0.27.65a2.72,2.72,0,0,0-1.17-.27,1.56,1.56,0,0,0-1.21.48,1.84,1.84,0,0,0-.45,1.32,2,2,0,0,0,.4,1.33,1.45,1.45,0,0,0,1.15.46,3.69,3.69,0,0,0,.81-0.09v-1.23h-1V260H276v2.4a5,5,0,0,1-.83.2,5.93,5.93,0,0,1-.86.06,2.16,2.16,0,0,1-1.67-.64,2.59,2.59,0,0,1-.59-1.82A2.4,2.4,0,0,1,272.7,258.35Zm-3.7-.6h0.85l1.78,4.8h-0.83l-0.48-1.33h-1.83L268,262.55h-0.83Zm-7.34,0h1.1l1.33,3.8h0l1.37-3.8h1.1v4.78h-0.75v-2.36q0-.36,0-0.93c0-.38,0-0.61,0-0.69h0l-1.43,4h-0.69l-1.39-4h0c0,0.59.06,1.15,0.06,1.67v2.33h-0.71v-4.78Zm34,45.93h-5a14.53,14.53,0,0,0-5.1-11,10.07,10.07,0,0,1-14.11,0,14.52,14.52,0,0,0-5.09,11h-5V266h34.24V303.7ZM279,259.25c0-.09-0.08-0.23-0.14-0.41s-0.1-.33-0.12-0.41a7.2,7.2,0,0,1-.26.88L278,260.55h1.39Zm-0.43,34.31a8.11,8.11,0,0,0,8.11-8.11v-4.08h-0.31a8.05,8.05,0,0,1-4.19-1.31,12.69,12.69,0,0,1-11.55-.26,8.08,8.08,0,0,0-.16,1.6v4.05A8.11,8.11,0,0,0,278.54,293.56Zm3.77-15.92a6.06,6.06,0,0,0,4.08,1.73,8.11,8.11,0,0,0-15.15-1.5,10.21,10.21,0,0,0,5.36,1.45A10.07,10.07,0,0,0,282.31,277.64Z" transform="translate(-257.99 -247.21)" style="fill:#f7f8f9"/></svg>