<svg id="Ñëîé_6" data-name="Ñëîé 6" xmlns="http://www.w3.org/2000/svg" viewBox="0 0 60.4 59.55"><title>bigstock-Vector-advertising-media-silho-94818284 [Convertido]</title><path d="M59.94,43.12a10,10,0,0,1,1.88-.71l-7.9-10.66a1,1,0,0,0-1.36-.22,0.92,0.92,0,0,0-.23,1.32ZM78.8,32.84a0.92,0.92,0,0,0-.23-1.32,1,1,0,0,0-1.37.22l-7.9,10.66a10,10,0,0,1,1.87.71ZM90.73,47.28H72.27c0-1.85-3-3.36-6.71-3.36s-6.71,1.5-6.71,3.36H40.4a5,5,0,0,0-5,5V85.87a5,5,0,0,0,5,5H90.73a5,5,0,0,0,5-5V52.32A5,5,0,0,0,90.73,47.28Zm-1.68,5a3.35,3.35,0,1,1-3.35,3.35A3.35,3.35,0,0,1,89,52.32Zm0,10.07a3.35,3.35,0,1,1-3.35,3.35A3.35,3.35,0,0,1,89,62.39ZM82.34,80.84a5,5,0,0,1-5,5H45.43a5,5,0,0,1-5-5V57.35a5,5,0,0,1,5-5H77.3a5,5,0,0,1,5,5V80.84ZM92.4,84.19H85.69a0.84,0.84,0,1,1,0-1.68H92.4A0.84,0.84,0,0,1,92.4,84.19Zm0-3.36H85.69a0.84,0.84,0,1,1,0-1.68H92.4A0.84,0.84,0,0,1,92.4,80.83Zm0-3.35H85.69a0.84,0.84,0,1,1,0-1.68H92.4A0.84,0.84,0,0,1,92.4,77.48Zm0-3.36H85.69a0.84,0.84,0,1,1,0-1.68H92.4A0.84,0.84,0,0,1,92.4,74.13Z" transform="translate(-35.36 -31.34)" style="fill:#f9f9f9"/></svg>