<svg id="Ñëîé_17" data-name="Ñëîé 17" xmlns="http://www.w3.org/2000/svg" viewBox="0 0 59.06 55.95"><title>icono12</title><path d="M387.65,307.27H397V295.34h-9.33v11.93Zm-34.19-39V269l15,9.07V266.86H354.62A1.3,1.3,0,0,0,353.46,268.26Zm0,19.58a1.29,1.29,0,0,0,1.16,1.39h13.88v-8.79l-15-9.07v16.47Zm55.83-25.63H370.55v31.08h38.73a3.18,3.18,0,0,0,3.23-3.11V265.31A3.18,3.18,0,0,0,409.29,262.2Zm-31-5.44,9.49-4.74c0.76-.38.69-0.69-0.16-0.69H375.21a1.56,1.56,0,0,0-1.55,1.55v7.26h4.66v-3.38Z" transform="translate(-353.46 -251.32)" style="fill:#f7f8f9"/></svg>