<svg id="Ñëîé_8" data-name="Ñëîé 8" xmlns="http://www.w3.org/2000/svg" viewBox="0 0 68.33 38.75"><title>icono3</title><path d="M264.77,81.36a7.13,7.13,0,0,1-7.12-6.82l-3.06-.76c0,0.15,0,.29,0,0.44a10.18,10.18,0,0,0,19.37,4.4l-3-.76A7.12,7.12,0,0,1,264.77,81.36Zm24.48-35.69a2,2,0,0,0-2,2v0.51l-38.75,9.69a2,2,0,1,0-4.08,0V70.14a2,2,0,1,0,4.08,0l38.75,9.69v0.51a2,2,0,1,0,4.08,0V47.71A2,2,0,0,0,289.24,45.67Zm6.12,11.41a1,1,0,0,0,.41-0.08l14.63-6.32a1,1,0,1,0-.81-1.87L295,55.13A1,1,0,0,0,295.36,57.08ZM311.68,63H295.74a1,1,0,0,0,0,2h15.94A1,1,0,1,0,311.68,63ZM310.4,77.57l-14.63-6.31a1,1,0,1,0-.81,1.87l14.63,6.32A1,1,0,1,0,310.4,77.57Z" transform="translate(-244.37 -45.67)" style="fill:#f9f9f9"/></svg>