<svg id="Ñëîé_15" data-name="Ñëîé 15" xmlns="http://www.w3.org/2000/svg" viewBox="0 0 40.14 58.53"><title>icono10</title><path d="M177.07,308V306c-1.91.11-3.68,0.14-5,.14s-3.11,0-5-.14V308c-3,.58-5,1.66-5,2.9h20.07C182.08,309.61,180.06,308.53,177.07,308Zm-5-55.64c-11.08,0-20.07,2.25-20.07,5,0,1,1.24,2,3.35,2.77v40.71c0,1.85,7.49,3.34,16.72,3.34s16.73-1.5,16.73-3.34V260.11c2.11-.79,3.34-1.75,3.34-2.77C192.12,254.57,183.13,252.32,172,252.32Zm13.38,8.36v38.46h0c0,0.92-6,1.67-13.38,1.67s-13.38-.75-13.38-1.67h0V260.68h0c0-.92,6-1.67,13.38-1.67s13.38,0.75,13.38,1.67h0Z" transform="translate(-151.98 -252.32)" style="fill:#f7f8f9"/></svg>