<svg id="Ñëîé_9" data-name="Ñëîé 9" xmlns="http://www.w3.org/2000/svg" viewBox="0 0 58.2 52.33"><title>icono4</title><path d="M396.79,63.16l3.2-1.6H380.23a0.8,0.8,0,0,1,0-1.6h22.39a0.79,0.79,0,0,1,.37.1l4.43-2.21V46.37H362.64V57.85l10.61,5.31h23.54ZM380.23,50.37h22.39a0.8,0.8,0,1,1,0,1.6H380.23A0.8,0.8,0,0,1,380.23,50.37Zm0,3.2h22.39a0.8,0.8,0,1,1,0,1.6H380.23A0.8,0.8,0,0,1,380.23,53.57Zm0,3.2h22.39a0.8,0.8,0,1,1,0,1.6H380.23A0.8,0.8,0,0,1,380.23,56.77Zm-14.39-7.2h9.6v9.6h-9.6v-9.6Zm27.76,15.19H376.44l3.2,1.6h10.75ZM387.2,68h-4.36L385,69Zm23.46-14.59-1.24-.8v4.27L413.15,55ZM385,36.87l-11.64,7.5h23.29ZM360.64,52.57l-1.24.8L356.9,55l3.74,1.87V52.57ZM385,71.29L355.92,56.73V87a2.25,2.25,0,0,0,2.24,2.24h53.72A2.25,2.25,0,0,0,414.12,87V56.73Z" transform="translate(-355.92 -36.87)" style="fill:#f9f9f9"/></svg>