<svg id="Ñëîé_5" data-name="Ñëîé 5" xmlns="http://www.w3.org/2000/svg" viewBox="0 0 54.29 54.3"><title>icono8</title><path d="M407.65,144.39H362.4a4.52,4.52,0,0,0-4.52,4.52v45.25a4.52,4.52,0,0,0,4.52,4.52h45.25a4.53,4.53,0,0,0,4.52-4.52V148.91A4.53,4.53,0,0,0,407.65,144.39ZM387.1,195.66h-5.66a1.68,1.68,0,0,1,0-3h5.66A1.68,1.68,0,0,1,387.1,195.66Zm22.06-6a1.51,1.51,0,0,1-1.51,1.51H362.4a1.51,1.51,0,0,1-1.51-1.51V148.91a1.51,1.51,0,0,1,1.51-1.51h45.25a1.51,1.51,0,0,1,1.51,1.51v40.72ZM377.48,161h-3a1.51,1.51,0,0,0-1.51,1.51v3a1.51,1.51,0,0,0,1.51,1.51h3A1.51,1.51,0,0,0,379,165.5v-3A1.51,1.51,0,0,0,377.48,161Zm0,9h-3a1.51,1.51,0,0,0-1.51,1.51v3a1.51,1.51,0,0,0,1.51,1.51h3a1.51,1.51,0,0,0,1.51-1.51v-3A1.51,1.51,0,0,0,377.48,170Zm0-18.1h-3a1.51,1.51,0,0,0-1.51,1.51v3a1.51,1.51,0,0,0,1.51,1.51h3a1.51,1.51,0,0,0,1.51-1.51v-3A1.51,1.51,0,0,0,377.48,151.93Zm0,27.15h-3a1.51,1.51,0,0,0-1.51,1.51v3a1.51,1.51,0,0,0,1.51,1.51h3A1.51,1.51,0,0,0,379,183.6v-3A1.51,1.51,0,0,0,377.48,179.07Zm-9-27.15h-3a1.51,1.51,0,0,0-1.51,1.51v3a1.51,1.51,0,0,0,1.51,1.51h3a1.51,1.51,0,0,0,1.51-1.51v-3A1.51,1.51,0,0,0,368.44,151.93Zm0,27.15h-3a1.51,1.51,0,0,0-1.51,1.51v3a1.51,1.51,0,0,0,1.51,1.51h3a1.51,1.51,0,0,0,1.51-1.51v-3A1.51,1.51,0,0,0,368.44,179.07Zm0-9h-3a1.51,1.51,0,0,0-1.51,1.51v3a1.51,1.51,0,0,0,1.51,1.51h3a1.5,1.5,0,0,0,1.51-1.51v-3A1.51,1.51,0,0,0,368.44,170Zm18.1,9h-3a1.51,1.51,0,0,0-1.51,1.51v3a1.51,1.51,0,0,0,1.51,1.51h3A1.51,1.51,0,0,0,388,183.6v-3A1.51,1.51,0,0,0,386.53,179.07ZM368.44,161h-3a1.51,1.51,0,0,0-1.51,1.51v3a1.51,1.51,0,0,0,1.51,1.51h3a1.51,1.51,0,0,0,1.51-1.51v-3A1.51,1.51,0,0,0,368.44,161Zm36.19,0h-3a1.51,1.51,0,0,0-1.51,1.51v3a1.51,1.51,0,0,0,1.51,1.51h3a1.51,1.51,0,0,0,1.51-1.51v-3A1.51,1.51,0,0,0,404.63,161Zm-9-9h-3a1.51,1.51,0,0,0-1.51,1.51v3a1.51,1.51,0,0,0,1.51,1.51h3a1.51,1.51,0,0,0,1.51-1.51v-3A1.51,1.51,0,0,0,395.58,151.93Zm9,18.1h-3a1.51,1.51,0,0,0-1.51,1.51v3a1.51,1.51,0,0,0,1.51,1.51h3a1.51,1.51,0,0,0,1.51-1.51v-3A1.51,1.51,0,0,0,404.63,170Zm0-18.1h-3a1.51,1.51,0,0,0-1.51,1.51v3a1.51,1.51,0,0,0,1.51,1.51h3a1.51,1.51,0,0,0,1.51-1.51v-3A1.51,1.51,0,0,0,404.63,151.93Zm-9,18.1h-3a1.51,1.51,0,0,0-1.51,1.51v3a1.51,1.51,0,0,0,1.51,1.51h3a1.5,1.5,0,0,0,1.51-1.51v-3A1.51,1.51,0,0,0,395.58,170Zm-9.05-18.1h-3a1.51,1.51,0,0,0-1.51,1.51v3a1.51,1.51,0,0,0,1.51,1.51h3a1.51,1.51,0,0,0,1.51-1.51v-3A1.51,1.51,0,0,0,386.53,151.93Zm0,9h-3a1.51,1.51,0,0,0-1.51,1.51v3a1.51,1.51,0,0,0,1.51,1.51h3A1.51,1.51,0,0,0,388,165.5v-3A1.51,1.51,0,0,0,386.53,161Zm0,9h-3a1.51,1.51,0,0,0-1.51,1.51v3a1.51,1.51,0,0,0,1.51,1.51h3a1.51,1.51,0,0,0,1.51-1.51v-3A1.51,1.51,0,0,0,386.53,170Zm9.05-9h-3a1.51,1.51,0,0,0-1.51,1.51v3a1.51,1.51,0,0,0,1.51,1.51h3a1.51,1.51,0,0,0,1.51-1.51v-3A1.51,1.51,0,0,0,395.58,161Z" transform="translate(-357.88 -144.39)" style="fill:#f9f9f9"/></svg>