<svg id="Ñëîé_14" data-name="Ñëîé 14" xmlns="http://www.w3.org/2000/svg" viewBox="0 0 61.43 56.6"><title>icono9</title><path d="M62.33,310.1h6.47V295.94H62.33V310.1Zm-3-1.85v1.87H71.83v-1.87H59.29Zm28.9-49.87V256h1.61l-1.21-2.42H86.17L85,256h1.62v2.43H73.64V256h1.62L74,253.53H71.62L70.41,256H72v2.43H59.09V256h1.62l-1.21-2.42H57.07L55.86,256h1.62v2.43H44.55V256h1.62L45,253.53H42.53L41.31,256h1.62v2.43H34.85v35.56H96.27V258.38H88.19Zm5.66,33.14H37.27V260.8H93.85v30.71Z" transform="translate(-34.85 -253.53)" style="fill:#fafbfc"/></svg>