<svg id="Ñëîé_2" data-name="Ñëîé 2" xmlns="http://www.w3.org/2000/svg" viewBox="0 0 58.08 53.24"><title>icono5</title><path d="M79.36,195.87H75.08l-0.73-3.65H56.77L56,195.87H51.76a4.31,4.31,0,0,0-3.94,4H83.31A4.31,4.31,0,0,0,79.36,195.87Zm12-49.2H39.75a3.23,3.23,0,0,0-3.23,3.23V187a3.23,3.23,0,0,0,3.23,3.23H91.37A3.23,3.23,0,0,0,94.6,187V149.89A3.23,3.23,0,0,0,91.37,146.66ZM65.56,187.8a1.61,1.61,0,1,1,1.62-1.62A1.61,1.61,0,0,1,65.56,187.8Zm25.81-5.65H39.75V151.5a1.61,1.61,0,0,1,1.61-1.61h48.4a1.61,1.61,0,0,1,1.61,1.61v30.65ZM76.62,168.34a0.23,0.23,0,0,1,0-.38l2.17-1.21c0.14-.08.12-0.2,0-0.27l-9-3.47c-0.17-.06-0.25,0-0.19.19l3.47,9c0.07,0.17.18,0.19,0.26,0L74.56,170a0.23,0.23,0,0,1,.38,0l3.92,3.92a0.32,0.32,0,0,0,.45,0l1.26-1.26a0.32,0.32,0,0,0,0-.45Z" transform="translate(-36.52 -146.66)" style="fill:#f7f8f9"/></svg>