<svg id="Ñëîé_10" data-name="Ñëîé 10" xmlns="http://www.w3.org/2000/svg" viewBox="0 0 75.25 37.63"><title>icono13</title><path d="M94.27,380.72c-4.92,0-8.91.89-8.91,2s4,2,8.91,2,8.91-.89,8.91-2S99.2,380.72,94.27,380.72Zm-59.71.45c-0.06-.22-0.11-0.37-0.14-0.47a8.68,8.68,0,0,1-.3,1l-0.5,1.44h1.61l-0.52-1.51C34.69,381.55,34.63,381.39,34.57,381.17Zm63.26,5.37c-1.18.1-2.39,0.14-3.56,0.14-5,0-10.91-.69-10.91-4s5.93-4,10.91-4c1.16,0,2.38,0,3.55.14q-0.2-.27-0.42-0.53l3.8-9.49H95.27l-4.08,5.09c-6.54-3.11-16.48-5.09-27.61-5.09-19.69,0-35.65,2.31-35.65,13.86,0,8.75,9.15,12.19,22.14,13.35l0.23,0.49H66.06A3.48,3.48,0,0,1,69.54,400v0.17l3-.49a1.82,1.82,0,0,0,1.29-1.1l0.91-2.73a55.86,55.86,0,0,0,16.49-4.4l4.08,5.09h5.94l-3.8-9.49Q97.63,386.81,97.83,386.54ZM36,385.47l-0.55-1.54H33.37l-0.54,1.54h-1l2.07-5.55h1L37,385.47H36Zm5.43-.73a3.05,3.05,0,0,1-2.19.73H37.72v-5.53h1.71a2.84,2.84,0,0,1,2.06.71,2.67,2.67,0,0,1,.73,2A2.75,2.75,0,0,1,41.46,384.75Zm4.1,0.73h-1l-1.93-5.53h0.93l1.16,3.44c0.06,0.16.12,0.38,0.19,0.63s0.11,0.45.13,0.58c0-.19.08-0.41,0.15-0.66s0.12-.44.17-0.56l1.15-3.42H47.5Zm5.79-4.77H49.13v1.51h2.09V383H49.13v1.74h2.22v0.77H48.23v-5.53h3.13v0.76Zm4.32,4.77-1.32-2.21H53.46v2.21h-0.9v-5.53h1.56a2.56,2.56,0,0,1,1.58.4,1.45,1.45,0,0,1,.52,1.21A1.52,1.52,0,0,1,55.14,383l1.56,2.45h-1ZM61,380.71H59.42v4.76h-0.9v-4.76H56.89v-0.77H61v0.77Zm1.75,4.76h-0.9v-5.53h0.9v5.53Zm4.12-.35a2.32,2.32,0,0,1-1.48.42,3.52,3.52,0,0,1-1.53-.29V384.4a4.33,4.33,0,0,0,.8.28,3.46,3.46,0,0,0,.79.1,1.27,1.27,0,0,0,.79-0.2,0.67,0.67,0,0,0,.25-0.55,0.69,0.69,0,0,0-.24-0.53,3.48,3.48,0,0,0-1-.51,2.57,2.57,0,0,1-1.07-.7,1.49,1.49,0,0,1-.31-0.95,1.33,1.33,0,0,1,.49-1.09,2,2,0,0,1,1.32-.4,3.87,3.87,0,0,1,1.58.35l-0.29.74a3.45,3.45,0,0,0-1.32-.31,1,1,0,0,0-.67.19,0.62,0.62,0,0,0-.22.5,0.67,0.67,0,0,0,.09.37,0.91,0.91,0,0,0,.3.29,5.38,5.38,0,0,0,.75.36,4.27,4.27,0,0,1,.89.48,1.32,1.32,0,0,1,.41.49,1.48,1.48,0,0,1,.13.65A1.4,1.4,0,0,1,66.91,385.13Zm2.51,0.35H68.51v-5.53h0.91v5.53Zm6.07,0H74.38l-2.72-4.41h0l0,0.25c0,0.47.05,0.9,0.05,1.29v2.88H70.88v-5.53H72l2.72,4.38h0c0-.06,0-0.27,0-0.63s0-.65,0-0.85v-2.9h0.83v5.53Zm5.76-.22a5.69,5.69,0,0,1-1,.23,6.69,6.69,0,0,1-1,.07,2.49,2.49,0,0,1-1.94-.74,3,3,0,0,1-.68-2.1,2.79,2.79,0,0,1,.77-2.09,2.88,2.88,0,0,1,2.11-.75,4.1,4.1,0,0,1,1.64.33l-0.32.75a3.2,3.2,0,0,0-1.35-.31,1.8,1.8,0,0,0-1.4.56,2.15,2.15,0,0,0-.52,1.52,2.28,2.28,0,0,0,.46,1.54,1.69,1.69,0,0,0,1.34.53,4.41,4.41,0,0,0,.94-0.11v-1.42H79.21v-0.78h2v2.78ZM55,380.91a1.7,1.7,0,0,0-.92-0.2h-0.6v1.81h0.63a1.44,1.44,0,0,0,.92-0.23,0.85,0.85,0,0,0,.28-0.69A0.75,0.75,0,0,0,55,380.91Zm-15.57-.21H38.63v4h0.64a1.78,1.78,0,0,0,2-2A1.7,1.7,0,0,0,39.41,380.7Zm26.65,17.85H49.21A1.48,1.48,0,0,0,47.73,400v5a1.48,1.48,0,0,0,1.48,1.48H66.06A1.48,1.48,0,0,0,67.54,405v-5A1.48,1.48,0,0,0,66.06,398.55Zm-15.35,4a1,1,0,1,1,1-1A1,1,0,0,1,50.71,402.51Zm4,0a1,1,0,1,1,1-1A1,1,0,0,1,54.67,402.51Zm4,0a1,1,0,1,1,1-1A1,1,0,0,1,58.63,402.51Zm4,0a1,1,0,1,1,1-1A1,1,0,0,1,62.59,402.51Z" transform="translate(-27.93 -368.84)" style="fill:#fafbfc"/></svg>