<svg id="Ñëîé_13" data-name="Ñëîé 13" xmlns="http://www.w3.org/2000/svg" viewBox="0 0 73.6 41.51"><title>icono16</title><path d="M360.49,395.52a6.6,6.6,0,1,0,6.6,6.61A6.61,6.61,0,0,0,360.49,395.52Zm0,10.38a3.77,3.77,0,1,1,3.77-3.78A3.78,3.78,0,0,1,360.49,405.9Zm49.06-10.38a6.6,6.6,0,1,0,6.6,6.61A6.61,6.61,0,0,0,409.56,395.52Zm0,10.38a3.77,3.77,0,1,1,3.77-3.78A3.77,3.77,0,0,1,409.56,405.9Zm-27.85-34a0.89,0.89,0,0,0-1-1h-0.41V373h0.34A0.94,0.94,0,0,0,381.71,371.92Zm7.22-.21a0.45,0.45,0,0,0,.15-0.37,0.39,0.39,0,0,0-.16-0.35,0.84,0.84,0,0,0-.48-0.11h-0.32v0.95h0.33A0.77,0.77,0,0,0,388.93,371.71Zm32,23.81a1,1,0,0,1-.94-0.94H419a0.94,0.94,0,0,1-.94-0.94v-1.89a1,1,0,0,1,.94-0.95h0.94a1.3,1.3,0,0,0-.9-1.17l-5.74-1.43a3.39,3.39,0,0,1-1.49-1l-6.38-8a2.29,2.29,0,0,0-1.53-.74h-4.72v-1.88h4.72a0.75,0.75,0,0,0,.76-0.93l-1.52-7.58a1.21,1.21,0,0,0-1.13-.92H377.48a1.2,1.2,0,0,0-1.13.92l-1.52,7.58a0.75,0.75,0,0,0,.76.93h4.72v1.88h-4.72a2.28,2.28,0,0,0-1.53.74l-6.38,8a2.65,2.65,0,0,1-1.53.85l-13.21,1.66a1.62,1.62,0,0,0-1.24,1l0,0.06h0.79a1.27,1.27,0,0,1,1.42.95v1.89a1.26,1.26,0,0,1-1.42.94h-2l0,0.06a1.42,1.42,0,0,1-1.25.88,1,1,0,0,0-.94.94v1.89a4.57,4.57,0,0,0,.13.94,3.91,3.91,0,0,0,.28.85l1.06,2.07a1.66,1.66,0,0,0,1.36.85h0.88a8.61,8.61,0,1,1,17.1,0h32a8.6,8.6,0,1,1,17.1,0H419a1.67,1.67,0,0,0,1.36-.85l1.05-2.07a4.3,4.3,0,0,0,.42-1.79v-1.89A1,1,0,0,0,420.88,395.52Zm-20.17-24.68a1.51,1.51,0,0,1,1.11-.39,2.22,2.22,0,0,1,.86.17l-0.17.4a1.68,1.68,0,0,0-.71-0.16,1,1,0,0,0-.74.29,1.15,1.15,0,0,0-.27.8,1.21,1.21,0,0,0,.25.81,0.88,0.88,0,0,0,.7.28,2.26,2.26,0,0,0,.5-0.06v-0.75h-0.6v-0.41h1.07v1.46a2.74,2.74,0,0,1-.51.12,3.51,3.51,0,0,1-.52,0,1.3,1.3,0,0,1-1-.39,1.58,1.58,0,0,1-.35-1.1A1.45,1.45,0,0,1,400.72,370.84Zm-3.45-.35h0.57l1.43,2.3h0s0-.14,0-0.33,0-.34,0-0.45v-1.52h0.44v2.9h-0.58l-1.43-2.31h0v0.13c0,0.25,0,.47,0,0.68v1.5h-0.43v-2.9Zm0,6.17v1.88h-15.1v-1.88h15.1ZM396,370.48h0.47v2.9H396v-2.9Zm-2.42,2.34a2.45,2.45,0,0,0,.42.15,1.87,1.87,0,0,0,.42.05,0.64,0.64,0,0,0,.41-0.11,0.35,0.35,0,0,0,.13-0.29,0.35,0.35,0,0,0-.13-0.28,1.65,1.65,0,0,0-.51-0.27,1.45,1.45,0,0,1-.56-0.37,0.8,0.8,0,0,1-.16-0.5,0.7,0.7,0,0,1,.26-0.57,1.07,1.07,0,0,1,.69-0.21,2,2,0,0,1,.83.18l-0.15.38a1.8,1.8,0,0,0-.69-0.16,0.52,0.52,0,0,0-.34.1,0.32,0.32,0,0,0-.12.27,0.39,0.39,0,0,0,0,.19,0.55,0.55,0,0,0,.16.15,2.47,2.47,0,0,0,.39.19,2.18,2.18,0,0,1,.47.25,0.7,0.7,0,0,1,.22.26,0.78,0.78,0,0,1,.07.34,0.73,0.73,0,0,1-.28.61,1.19,1.19,0,0,1-.78.22,1.76,1.76,0,0,1-.8-0.16v-0.44Zm-1.06-2.34H393v2.9h-0.47v-2.9Zm-2.63,0h2.19v0.4h-0.86v2.5h-0.47v-2.5h-0.86v-0.4Zm-2.27,0h0.82a1.34,1.34,0,0,1,.83.21,0.75,0.75,0,0,1,.27.63,0.8,0.8,0,0,1-.57.77l0.82,1.28h-0.54l-0.7-1.16h-0.47v1.16h-0.47v-2.9Zm-2.27,0H387v0.4h-1.17v0.79h1.09v0.4h-1.09V373H387v0.4h-1.64v-2.9Zm-2.43,0,0.61,1.81c0,0.09.07,0.2,0.1,0.33a2.45,2.45,0,0,1,.07.3c0-.1,0-0.22.08-0.35l0.09-.29,0.61-1.8H385l-1,2.9h-0.5l-1-2.9h0.49Zm-4,2.9-0.29-.8h-1.11l-0.29.8h-0.5l1.09-2.91h0.52l1.08,2.91H379Zm0.89,0v-2.9h0.9a1.49,1.49,0,0,1,1.08.37,1.39,1.39,0,0,1,.39,1.05,1.46,1.46,0,0,1-.4,1.1,1.62,1.62,0,0,1-1.15.37h-0.81Zm2.34,20.25h-1.89v1.88h-1.89v-1.88h-1.89v1.88h-1.88v-1.88h-1.89v1.88h-1.89v-1.88H369v-1.89h1.89v1.89h1.89v-1.89h1.89v1.89h1.88v-1.89h1.89v1.89h1.89v-1.89h1.89v1.89Zm4.72-1.89H385a0.94,0.94,0,0,1,0-1.89h1.89A0.94,0.94,0,0,1,386.91,391.75Zm0.94-4.72a1,1,0,0,1-.94.94h-15.1c-0.52,0-.69-0.34-0.38-0.76l4.53-6a2.12,2.12,0,0,1,1.51-.75h9.44a0.94,0.94,0,0,1,.94.94V387Zm16,4.72H402a0.94,0.94,0,0,1,0-1.89h1.89A0.94,0.94,0,0,1,403.9,391.75Zm1.89-3.77H392.57a1,1,0,0,1-.94-0.94v-5.66a0.94,0.94,0,0,1,.94-0.94h7.55a2.14,2.14,0,0,1,1.51.76l4.53,6C406.47,387.63,406.3,388,405.78,388Zm-27.59-16.84a2.56,2.56,0,0,1-.07-0.25,3.51,3.51,0,0,1-.16.53l-0.26.76h0.85l-0.27-.79C378.26,371.33,378.22,371.24,378.19,371.13Z" transform="translate(-348.23 -367.21)" style="fill:#fafbfc"/></svg>