<?xml version="1.0" encoding="utf-8"?>
<!-- Generator: Adobe Illustrator 19.1.0, SVG Export Plug-In . SVG Version: 6.00 Build 0)  -->
<svg version="1.1" id="Layer_1" xmlns="http://www.w3.org/2000/svg" xmlns:xlink="http://www.w3.org/1999/xlink" x="0px" y="0px"
	 viewBox="0 0 28 28" style="enable-background:new 0 0 28 28;" xml:space="preserve">
<style type="text/css">
	.st0{fill:#EDF3F2;}
</style>
<g id="yMVK6O.tif_2_">
	<g>
		<path class="st0" d="M7.5,3.8c4.4,0,8.8,0,13.3,0c0,0,0.1,0,0.1,0c2.1,0.2,3.6,1.9,3.6,4c0,4.2,0,8.4,0,12.7c0,2.2-1.8,4-4,4
			c-4.2,0-8.5,0-12.7,0c-0.7,0-1.4-0.2-2-0.5c-1.3-0.8-2-2-2-3.6c0-3.6,0-7.3,0-10.9c0-0.6,0-1.3,0-1.9C3.8,6.1,4.6,4.9,6,4.3
			C6.5,4,7,4,7.5,3.8z M14.1,22.5c2.1,0,4.2,0,6.3,0c1.2,0,2.1-0.8,2.1-2.1c0-2.7,0-5.4,0-8.2c0-0.2,0-0.2-0.2-0.2
			c-0.9,0-1.8,0-2.6,0c-0.2,0-0.2,0-0.2,0.2c0.3,0.8,0.4,1.7,0.3,2.6c-0.4,3.4-3.8,5.7-7.1,4.8c-3.2-0.9-4.9-4.2-3.8-7.4
			c0.1-0.2,0-0.2-0.2-0.2c-0.9,0-1.7,0-2.6,0c-0.2,0-0.3,0.1-0.3,0.3c0,2.7,0,5.4,0,8.1c0,1.3,1,2.1,2.1,2.1
			C9.9,22.5,12,22.5,14.1,22.5z M14.1,10.6c-2,0-3.6,1.6-3.6,3.7c0,2,1.6,3.6,3.6,3.6c2,0,3.6-1.6,3.6-3.6
			C17.7,12.2,16.1,10.6,14.1,10.6z M20.3,6.3L20.3,6.3c-0.5,0-1,0-1.6,0c-0.1,0-0.2,0-0.2,0.2c0,1,0,2.1,0,3.1
			c0,0.2,0.1,0.2,0.2,0.2c1,0,2.1,0,3.1,0c0.2,0,0.2,0,0.2-0.2c0-1,0-2.1,0-3.1c0-0.2,0-0.2-0.2-0.2C21.3,6.3,20.8,6.3,20.3,6.3z"/>
	</g>
</g>
</svg>
