<?xml version="1.0" encoding="utf-8"?>
<!-- Generator: Adobe Illustrator 19.1.0, SVG Export Plug-In . SVG Version: 6.00 Build 0)  -->
<svg version="1.1" id="Layer_1" xmlns="http://www.w3.org/2000/svg" xmlns:xlink="http://www.w3.org/1999/xlink" x="0px" y="0px"
	 viewBox="0 0 92.4 66.9" style="enable-background:new 0 0 92.4 66.9;" xml:space="preserve">
<style type="text/css">
	.st0{fill:#EDF3F2;}
</style>
<g>
	<path class="st0" d="M63.2,43.4c-0.1-0.3-0.9-0.2-2.2-0.4h0c0,0-0.8-0.2-4.3-2c3.5,1.6,5.2,1.4,5.8,1.2l0.2-0.1l0.2-0.1
		c1.8-1.1,4.2-3.1,4.8-3.9c0.4-0.6-0.6-5.6-1.3-9.3c1.5-0.2,2.3-0.4,2.3-0.4C77,25.7,85,21.6,92.4,15.9c-8.5,3-17.9,5.2-25.9,6.7
		c-0.7-2.8-1.2-7.7-2.5-10.8c-2.6-6.1-3.7-12-6.6-11.8c-2.6,0.2-5.9,1.4-10.8,1.4c-4.9,0-7.4-1.5-9.9-1.5c-3.1,0.1-4.4,4.9-7,11.3
		c-1.5,3.5-2.3,7.3-2.7,8.8c0,0,3.2,1.6,7.5,2.7c3.2,0.8,6.9,1.4,9.6,1.7c0.2,0,0.4,0,0.6,0c0.1,0.1-0.3,0.1-1.7,0.1
		c-14-0.3-28-3-43-8.2C7.3,22,15.2,26,23.4,28.6c0.1,0,1.5,0.3,3.7,0.5c-0.8,3.8-1.6,8.4-1.2,8.9c0.5,0.7,2.6,2.6,4.3,3.5
		c3.6,1.4,7.9-0.8,7.9-0.8s0.8-0.4,1.3-0.7c2-1.1,4.6-2.4,5.6-2.8c0.5-0.2,1.1-0.6,1.7-0.6c0.6,0,1.3,0.4,1.9,0.7
		c1.4,0.6,2.7,1.2,4.1,1.9c-0.1-0.1-2-0.5-3.7-0.7c-1.9-0.2-0.7,1.8-0.2,2.4c0,0,0,0,0,0c0.1,0.1,0.1,0.2,0.1,0.2s0,0,0,0l0,0
		c0,0-0.9-0.4-1.1-0.5l-0.4-0.2l0,0.3c0,0,0,0,0,0l-0.7,8.8c0,0,0-0.1,0-0.1l0,0.1c0,0,0,0,0-0.1l0,0c-0.2-2.9-0.4-5.7-0.6-8.6
		c0-0.1,0-0.1,0-0.2l0,0c-0.1-0.6-0.2-0.4-0.7-0.2l-0.6,0.4c0,0,0,0,0,0l-2.4,1.5c0,0,0,0,0,0l0,0c0.1-0.1,0.1-0.1,0.3-0.2
		c0,0,0,0,0,0c0.3-0.2,0.6-0.6,1-1c0,0,0,0,0,0c0.7-0.8,1.4-1.7,0.9-2.2c-0.8-0.8-2.5,0.2-6.5,2.1c-3.9,2.2-5.6,2-5.6,2l0,0
		c-1.8,0.2-2.3,0-2.8,0.2c-0.3,0.1,0.5,4.5,0.6,4.6c0.1,0.1,0.4,0.4,0.6,0.5c0.2,0.1,0.6-0.1,1-0.2c0.6-0.1,4.3-2.3,4.3-2.3
		s-2.1,2.3-2.9,2.9c-0.8,0.6-0.9,0.6-1.1,0.9c-0.2,0.2,0.4,2.7,0.4,2.7s0.3,0.5,0.5,0.6s1.7-1,1.7-1l-0.5,1.9c0,0,1.6,1.4,1.9,1.8
		c0.6,1,3.2,5.1,4.4,5.9c3.2,2.5,6.2,5.6,6.2,5.6s2.1-2.2,5.1-4.8c2-1.7,4.2-4.5,4.2-4.5l2.6-3.9l1.2-1l1.3-3.2l-1-0.9l1.9-0.5
		l0.3-0.5C62.4,47.6,63.3,43.6,63.2,43.4z M51.5,53.8L51.5,53.8l0.1-0.2L51.5,53.8z M41.8,4.5c0,0,4.4,1.5,9.9-0.8
		C46.7,8.4,43.1,5.6,41.8,4.5z M46.4,35.2c-6.7,0-12.3-0.4-15.5-0.6l0,0c0,0-1.6,0.1-2,2c0,0.1-0.1,0.2-0.1,0.3
		c-0.1,0.6-0.1,1,0,1.1c0,0,1.6,2.6,3,3.3c-0.3-0.1-0.6-0.3-1-0.5c-1.5-0.9-3.1-2.4-3.5-3c-0.4-0.5,0.5-4.9,1.3-8.4
		c0.6,0.1,1.2,0.1,1.8,0.2c-0.1,0.3-0.1,0.6-0.2,1c0.1,0.2,0.6,1.1,3.7,1.3c0.1,0,7.8,0.4,12.5,0.4c5.1,0,9.8-0.2,13-0.5
		c3.4-0.3,3.6-1.6,3.6-1.6l-0.2-0.9c0.7-0.1,1.3-0.2,1.9-0.2c0.8,3.4,1.8,8.2,1.4,8.8c-0.2,0.3-0.6,0.7-1.1,1.2c0,0,0,0.1-0.1,0.1
		c-0.8,0.7-1.8,1.5-2.8,2.1c0.8-0.8,1.6-2,2.1-2.6c0.1-0.2,0.2-0.3,0.3-0.4c0,0,0,0,0-0.1c0,0,0,0,0-0.1c-0.4-3.5-2.6-3.3-2.6-3.3
		l0,0C58.9,34.8,53.2,35.2,46.4,35.2z"/>
	<path class="st0" d="M63.9,45.1c0,0-0.5,2.5-0.9,3.8c-0.3,1,0.2,2.2,0.7,3.3c1.2,2.5,1.2,5.1,1.2,5.1s2.6-3.4,2.1-6.9
		c1.3,0.9,2,2.2,2,2.2S69.2,45.2,63.9,45.1z"/>
</g>
</svg>
