<?xml version="1.0" encoding="utf-8"?>
<!-- Generator: Adobe Illustrator 19.1.0, SVG Export Plug-In . SVG Version: 6.00 Build 0)  -->
<svg version="1.1" id="Layer_1" xmlns="http://www.w3.org/2000/svg" xmlns:xlink="http://www.w3.org/1999/xlink" x="0px" y="0px"
	 viewBox="-1453 967.1 92.4 115.8" style="enable-background:new -1453 967.1 92.4 115.8;" xml:space="preserve">
<g>
	<path d="M-1389.8,1010.5c-0.1-0.3-0.9-0.2-2.2-0.4l0,0c0,0-0.8-0.2-4.3-2c3.5,1.6,5.2,1.4,5.8,1.2l0.2-0.1l0.2-0.1
		c1.8-1.1,4.2-3.1,4.8-3.9c0.4-0.6-0.6-5.6-1.3-9.3c1.5-0.2,2.3-0.4,2.3-0.4c8.3-2.7,16.3-6.8,23.7-12.5c-8.5,3-17.9,5.2-25.9,6.7
		c-0.7-2.8-1.2-7.7-2.5-10.8c-2.6-6.1-3.7-12-6.6-11.8c-2.6,0.2-5.9,1.4-10.8,1.4s-7.4-1.5-9.9-1.5c-3.1,0.1-4.4,4.9-7,11.3
		c-1.5,3.5-2.3,7.3-2.7,8.8c0,0,3.2,1.6,7.5,2.7c3.2,0.8,6.9,1.4,9.6,1.7c0.2,0,0.4,0,0.6,0c0.1,0.1-0.3,0.1-1.7,0.1
		c-14-0.3-28-3-43-8.2c7.3,5.7,15.2,9.7,23.4,12.3c0.1,0,1.5,0.3,3.7,0.5c-0.8,3.8-1.6,8.4-1.2,8.9c0.5,0.7,2.6,2.6,4.3,3.5
		c3.6,1.4,7.9-0.8,7.9-0.8s0.8-0.4,1.3-0.7c2-1.1,4.6-2.4,5.6-2.8c0.5-0.2,1.1-0.6,1.7-0.6c0.6,0,1.3,0.4,1.9,0.7
		c1.4,0.6,2.7,1.2,4.1,1.9c-0.1-0.1-2-0.5-3.7-0.7c-1.9-0.2-0.7,1.8-0.2,2.4l0,0c0.1,0.1,0.1,0.2,0.1,0.2l0,0l0,0
		c0,0-0.9-0.4-1.1-0.5l-0.4-0.2v0.3l0,0l-0.7,8.8v-0.1v0.1c0,0,0,0,0-0.1l0,0c-0.2-2.9-0.4-5.7-0.6-8.6c0-0.1,0-0.1,0-0.2l0,0
		c-0.1-0.6-0.2-0.4-0.7-0.2l-0.6,0.4l0,0l-2.4,1.5l0,0l0,0c0.1-0.1,0.1-0.1,0.3-0.2l0,0c0.3-0.2,0.6-0.6,1-1l0,0
		c0.7-0.8,1.4-1.7,0.9-2.2c-0.8-0.8-2.5,0.2-6.5,2.1c-3.9,2.2-5.6,2-5.6,2l0,0c-1.8,0.2-2.3,0-2.8,0.2c-0.3,0.1,0.5,4.5,0.6,4.6
		c0.1,0.1,0.4,0.4,0.6,0.5c0.2,0.1,0.6-0.1,1-0.2c0.6-0.1,4.3-2.3,4.3-2.3s-2.1,2.3-2.9,2.9c-0.8,0.6-0.9,0.6-1.1,0.9
		c-0.2,0.2,0.4,2.7,0.4,2.7s0.3,0.5,0.5,0.6c0.2,0.1,1.7-1,1.7-1l-0.5,1.9c0,0,1.6,1.4,1.9,1.8c0.6,1,3.2,5.1,4.4,5.9
		c3.2,2.5,6.2,5.6,6.2,5.6s2.1-2.2,5.1-4.8c2-1.7,4.2-4.5,4.2-4.5l2.6-3.9l1.2-1l1.3-3.2l-1-0.9l1.9-0.5l0.3-0.5
		C-1390.6,1014.7-1389.7,1010.7-1389.8,1010.5z M-1401.5,1020.9L-1401.5,1020.9l0.1-0.2L-1401.5,1020.9z M-1411.2,971.6
		c0,0,4.4,1.5,9.9-0.8C-1406.3,975.5-1409.9,972.7-1411.2,971.6z M-1406.6,1002.3c-6.7,0-12.3-0.4-15.5-0.6l0,0c0,0-1.6,0.1-2,2
		c0,0.1-0.1,0.2-0.1,0.3c-0.1,0.6-0.1,1,0,1.1c0,0,1.6,2.6,3,3.3c-0.3-0.1-0.6-0.3-1-0.5c-1.5-0.9-3.1-2.4-3.5-3
		c-0.4-0.5,0.5-4.9,1.3-8.4c0.6,0.1,1.2,0.1,1.8,0.2c-0.1,0.3-0.1,0.6-0.2,1c0.1,0.2,0.6,1.1,3.7,1.3c0.1,0,7.8,0.4,12.5,0.4
		c5.1,0,9.8-0.2,13-0.5c3.4-0.3,3.6-1.6,3.6-1.6l-0.2-0.9c0.7-0.1,1.3-0.2,1.9-0.2c0.8,3.4,1.8,8.2,1.4,8.8
		c-0.2,0.3-0.6,0.7-1.1,1.2c0,0,0,0.1-0.1,0.1c-0.8,0.7-1.8,1.5-2.8,2.1c0.8-0.8,1.6-2,2.1-2.6c0.1-0.2,0.2-0.3,0.3-0.4
		c0,0,0,0,0-0.1c0,0,0,0,0-0.1c-0.4-3.5-2.6-3.3-2.6-3.3l0,0C-1394.1,1001.9-1399.8,1002.3-1406.6,1002.3z"/>
	<path d="M-1389.1,1012.2c0,0-0.5,2.5-0.9,3.8c-0.3,1,0.2,2.2,0.7,3.3c1.2,2.5,1.2,5.1,1.2,5.1s2.6-3.4,2.1-6.9c1.3,0.9,2,2.2,2,2.2
		S-1383.8,1012.3-1389.1,1012.2z"/>
</g>
<g>
	<g>
		<path d="M-1444.8,1055.1h11.8v3.3h-4.2v10.1h-3.5v-10.1h-4.2V1055.1z"/>
		<path d="M-1421.1,1055.1c3.5,0,5,2.2,5,4.9c0,1.9-0.8,3.6-2.7,4.5l2.9,4.1h-4.1l-2.6-3.6h-1.8v3.6h-3.4v-13.5H-1421.1z
			 M-1424.3,1058.3v3.6h3c1.4,0,1.9-0.8,1.9-1.8c0-1-0.5-1.8-1.9-1.8H-1424.3z"/>
		<path d="M-1403.3,1055.1l5.4,13.5h-3.8l-0.7-2h-5.3l-0.7,2h-3.8l5.5-13.5H-1403.3z M-1405,1059.5l-1.5,4h3L-1405,1059.5z"/>
		<path d="M-1389.4,1055.1v13.5h-3.5v-13.5H-1389.4z"/>
		<path d="M-1383.4,1068.6v-13.5h2.9l6,7.5v-7.5h3.4v13.5h-2.9l-6-7.5v7.5H-1383.4z"/>
	</g>
	<path d="M-1436,1077c0-0.7-0.2-1.3-0.7-1.8c-0.5-0.5-1.2-0.8-2-0.8h-3.4v7.5h1.2v-2.4h2.2l0,0l1.7,2.4h1.5l-1.9-2.7
		C-1436.5,1078.8-1436,1077.9-1436,1077z M-1438.7,1078.4h-2.1v-2.7h2.1c0.5,0,0.9,0.2,1.1,0.4c0.2,0.2,0.4,0.6,0.4,1
		c0,0.4-0.1,0.7-0.4,1C-1437.8,1078.2-1438.1,1078.3-1438.7,1078.4z M-1425.5,1074.3c-2.2,0-3.9,1.8-3.9,3.9c0,2.2,1.8,3.9,3.9,3.9
		c2.2,0,3.9-1.7,3.9-3.9C-1421.6,1076-1423.4,1074.3-1425.5,1074.3z M-1425.5,1080.9c-1.5,0-2.7-1.2-2.7-2.7c0-0.7,0.3-1.4,0.8-1.9
		c0.5-0.5,1.2-0.8,1.9-0.8c0.7,0,1.4,0.3,1.9,0.8c0.5,0.5,0.8,1.2,0.8,1.9C-1422.9,1079.7-1424.1,1080.9-1425.5,1080.9z
		 M-1409.6,1078.1c0.4-0.4,0.7-0.9,0.7-1.5c0-0.6-0.2-1.1-0.6-1.5c-0.4-0.4-1-0.6-1.7-0.6h-3.4v7.5h3.7c0.7,0,1.3-0.2,1.7-0.6
		c0.4-0.4,0.6-0.9,0.6-1.5C-1408.6,1079.1-1409,1078.4-1409.6,1078.1z M-1413.5,1075.6h2.2c0.4,0,0.7,0.1,0.9,0.3
		c0.2,0.2,0.3,0.4,0.3,0.7c0,0.5-0.4,1-1,1h-2.3V1075.6z M-1410.2,1080.5c-0.2,0.2-0.5,0.3-0.9,0.3h-2.5v-2.1h2.5
		c0.4,0,0.7,0.1,0.9,0.3c0.2,0.2,0.3,0.4,0.3,0.7C-1409.9,1080-1410,1080.3-1410.2,1080.5z M-1396.6,1078.1c0.4-0.4,0.7-0.9,0.7-1.5
		c0-0.6-0.2-1.1-0.6-1.5c-0.4-0.4-1-0.6-1.7-0.6h-3.4v7.5h3.7c0.7,0,1.3-0.2,1.7-0.6c0.4-0.4,0.6-0.9,0.6-1.5
		C-1395.6,1079.1-1396,1078.4-1396.6,1078.1z M-1400.5,1075.6h2.2c0.4,0,0.7,0.1,0.9,0.3c0.2,0.2,0.3,0.4,0.3,0.7c0,0.5-0.4,1-1,1
		h-2.3V1075.6z M-1397.1,1080.5c-0.2,0.2-0.5,0.3-0.9,0.3h-2.5v-2.1h2.5c0.4,0,0.7,0.1,0.9,0.3c0.2,0.2,0.3,0.4,0.3,0.7
		C-1396.8,1080-1396.9,1080.3-1397.1,1080.5z M-1388.6,1082h5.4v-1.2h-4.2v-1.9h3.6v-1.2h-3.6v-2h4.2v-1.2h-5.4V1082z
		 M-1371.6,1079.2c0.9-0.4,1.4-1.3,1.4-2.3c0-0.7-0.2-1.3-0.7-1.8c-0.5-0.5-1.2-0.8-2-0.8h-3.4v7.5h1.2v-2.4h2.2l0,0l1.7,2.4h1.5
		L-1371.6,1079.2z M-1372.9,1078.4h-2.1v-2.7h2.1c0.5,0,0.9,0.2,1.1,0.4c0.2,0.2,0.4,0.6,0.4,1c0,0.4-0.1,0.7-0.4,1
		C-1372,1078.2-1372.4,1078.3-1372.9,1078.4z"/>
</g>
</svg>
