<?xml version="1.0" encoding="utf-8"?>
<!-- Generator: Adobe Illustrator 19.1.0, SVG Export Plug-In . SVG Version: 6.00 Build 0)  -->
<svg version="1.1" id="Layer_1" xmlns="http://www.w3.org/2000/svg" xmlns:xlink="http://www.w3.org/1999/xlink" x="0px" y="0px"
	 viewBox="-24 41.8 50.4 18.2" style="enable-background:new -24 41.8 50.4 18.2;" xml:space="preserve">
<style type="text/css">
	.st0{fill:#181818;}
</style>
<g>
	<path class="st0" d="M16.4,46.7c0.4,0.1,0.8,0.2,1.2,0.3c0.5,0.1,0.9-0.2,1-0.6c0.1-0.5-0.2-0.9-0.6-1c-0.4-0.1-0.8-0.2-1.2-0.3
		c-0.5-0.1-0.9,0.2-1,0.6C15.7,46.1,15.9,46.6,16.4,46.7L16.4,46.7z"/>
	<path class="st0" d="M-21.3,49.4c0.5-0.4,1.1-0.8,1.9-1.2c0.4-0.2,0.6-0.7,0.4-1.1c-0.2-0.4-0.7-0.6-1.1-0.4
		c-0.9,0.4-1.6,0.9-2.2,1.5c-0.4,0.3-0.4,0.8-0.1,1.2S-21.6,49.7-21.3,49.4L-21.3,49.4z M-21.4,53c-0.6-0.6-0.9-1.1-1-1.6
		c-0.1-0.5-0.5-0.8-1-0.7c-0.5,0.1-0.8,0.5-0.7,1h0c0.1,1,0.7,1.8,1.5,2.6c0.3,0.3,0.9,0.3,1.2,0S-21,53.4-21.4,53L-21.4,53z
		 M-16.6,55.6c-0.8-0.3-1.5-0.6-2.2-0.9c-0.4-0.2-0.9,0-1.1,0.4s0,0.9,0.4,1.1c0.7,0.3,1.5,0.7,2.4,1c0.4,0.2,0.9-0.1,1.1-0.5
		C-15.9,56.2-16.2,55.7-16.6,55.6L-16.6,55.6z M-11.2,57c-0.8-0.2-1.6-0.3-2.4-0.5c-0.5-0.1-0.9,0.2-1,0.6c-0.1,0.5,0.2,0.9,0.6,1
		c0.8,0.2,1.6,0.4,2.5,0.6c0.5,0.1,0.9-0.2,1-0.7S-10.7,57.1-11.2,57L-11.2,57z M-5.5,57.9c-0.8-0.1-1.6-0.2-2.4-0.3
		c-0.5-0.1-0.9,0.3-0.9,0.7c-0.1,0.5,0.3,0.9,0.7,0.9c0.8,0.1,1.6,0.2,2.5,0.3c0.5,0,0.9-0.3,0.9-0.8C-4.7,58.3-5.1,57.9-5.5,57.9
		L-5.5,57.9z M0.2,58.2c-0.8,0-1.6-0.1-2.4-0.1c-0.5,0-0.9,0.3-0.9,0.8s0.3,0.9,0.8,0.9h0c0.8,0,1.7,0.1,2.5,0.1
		c0.5,0,0.9-0.4,0.9-0.8C1,58.6,0.6,58.3,0.2,58.2L0.2,58.2z M5.9,58.2c-0.8,0-1.6,0.1-2.4,0.1c-0.5,0-0.8,0.4-0.8,0.9
		c0,0.5,0.4,0.8,0.9,0.8l0,0c0.8,0,1.7,0,2.5-0.1c0.5,0,0.8-0.4,0.8-0.9S6.4,58.2,5.9,58.2L5.9,58.2z M11.6,57.7
		c-0.8,0.1-1.6,0.2-2.4,0.3c-0.5,0-0.8,0.5-0.8,0.9c0,0.5,0.5,0.8,0.9,0.8c0.9-0.1,1.7-0.2,2.5-0.3c0.5-0.1,0.8-0.5,0.7-0.9
		C12.5,57.9,12,57.6,11.6,57.7L11.6,57.7z M17.1,56.6c-0.7,0.2-1.5,0.4-2.4,0.5c-0.5,0.1-0.8,0.5-0.7,1c0.1,0.5,0.5,0.8,1,0.7
		c0.9-0.2,1.7-0.4,2.5-0.6c0.4-0.1,0.7-0.6,0.6-1S17.6,56.5,17.1,56.6L17.1,56.6z M22.3,54.7c-0.6,0.3-1.3,0.7-2.1,1
		c-0.4,0.2-0.6,0.7-0.5,1.1c0.2,0.4,0.7,0.6,1.1,0.5c0.9-0.3,1.7-0.7,2.4-1.1c0.4-0.2,0.5-0.7,0.3-1.1
		C23.2,54.6,22.7,54.4,22.3,54.7L22.3,54.7z M24.6,51.2c0.1,0.2,0.2,0.5,0.2,0.7h0.8l-0.8,0c0,0.3-0.1,0.6-0.3,0.9
		c-0.2,0.4-0.1,0.9,0.3,1.2c0.4,0.2,0.9,0.1,1.2-0.3c0.3-0.5,0.5-1.1,0.5-1.8l0,0c0-0.5-0.1-0.9-0.3-1.4c-0.2-0.4-0.7-0.6-1.1-0.4
		C24.6,50.3,24.4,50.8,24.6,51.2L24.6,51.2z M20.6,48.2c0.8,0.4,1.5,0.7,2.1,1.1c0.4,0.3,0.9,0.1,1.2-0.2c0.3-0.4,0.1-0.9-0.2-1.2
		c-0.7-0.4-1.4-0.8-2.3-1.2c-0.4-0.2-0.9,0-1.1,0.4C19.9,47.5,20.1,48,20.6,48.2L20.6,48.2z"/>
	<path class="st0" d="M-16.2,47c0.3-0.1,0.6-0.2,1-0.3c0.5-0.1,0.7-0.6,0.6-1c-0.1-0.5-0.6-0.7-1-0.6c-0.4,0.1-0.9,0.2-1.4,0.5
		c-0.4,0.2-0.6,0.7-0.4,1.1C-17.1,47-16.6,47.2-16.2,47L-16.2,47z"/>
	<circle class="st0" cx="-10.2" cy="45.1" r="3.3"/>
	<circle class="st0" cx="11.6" cy="45.1" r="3.3"/>
</g>
</svg>
