<?xml version="1.0" encoding="utf-8"?>
<!-- Generator: Adobe Illustrator 19.1.0, SVG Export Plug-In . SVG Version: 6.00 Build 0)  -->
<svg version="1.1" id="Layer_1" xmlns="http://www.w3.org/2000/svg" xmlns:xlink="http://www.w3.org/1999/xlink" x="0px" y="0px"
	 viewBox="-1483 983.8 32 35.2" style="enable-background:new -1483 983.8 32 35.2;" xml:space="preserve">
<style type="text/css">
	.st0{fill:#EDF3F2;}
</style>
<g>
	<path class="st0" d="M-1481.4,990.3c1.9,1.4,1.9,3.1,1.9,3.9s0,10.2,0,10.2h4.9c0,0,0-6.8,0-8.1
		C-1474.6,994.2-1476.6,990.3-1481.4,990.3z"/>
	<g>
		<path class="st0" d="M-1457.8,1004.3c0,2.3-0.9,4.4-2.5,5.9c-1.5,1.5-3.6,2.5-5.9,2.5l0,4.9c3.7,0,7-1.5,9.4-3.9
			c2.4-2.4,3.9-5.7,3.9-9.4H-1457.8L-1457.8,1004.3z"/>
	</g>
	<g>
		<path class="st0" d="M-1474.6,1004.3c0,2.3,0.9,4.4,2.5,5.9c1.5,1.5,3.6,2.5,5.9,2.5l0,4.9c-3.7,0-7-1.5-9.4-3.9
			c-2.4-2.4-3.9-5.7-3.9-9.4H-1474.6L-1474.6,1004.3z"/>
	</g>
	<path class="st0" d="M-1465.5,995.9c0,0.6,0,19.4,0,19.4l12.5-10.9V985L-1465.5,995.9z M-1457,1002.8c-1.1,1.1-2.8,1.1-3.9,0
		c-1.1-1.1-1.1-2.8,0-3.9c1.1-1.1,2.8-1.1,3.9,0C-1456,1000-1456,1001.7-1457,1002.8z"/>
</g>
</svg>
