<?xml version="1.0" encoding="utf-8"?>
<!-- Generator: Adobe Illustrator 19.1.0, SVG Export Plug-In . SVG Version: 6.00 Build 0)  -->
<svg version="1.1" id="Layer_1" xmlns="http://www.w3.org/2000/svg" xmlns:xlink="http://www.w3.org/1999/xlink" x="0px" y="0px"
	 viewBox="-1483 983.8 32 35.2" style="enable-background:new -1483 983.8 32 35.2;" xml:space="preserve">
<style type="text/css">
	.st0{fill:#EDF3F2;}
</style>
<g>
	<path class="st0" d="M-1459.3,983.7c0.3,2.1-0.8,3.2-1.3,3.7c-0.5,0.5-14.9,14.9-14.9,14.9l3.2,3.2c0,0,12.7-12.7,13.5-13.5
		C-1457.4,990.7-1456.2,986.8-1459.3,983.7z"/>
	<g>
		<path class="st0" d="M-1472.9,1004.8c1.5,1.5,2.2,3.5,2.3,5.4c0,2-0.7,3.9-2.3,5.4l3.2,3.2c2.4-2.4,3.6-5.5,3.6-8.6
			c0-3.1-1.2-6.2-3.6-8.6L-1472.9,1004.8L-1472.9,1004.8z"/>
	</g>
	<circle class="st0" cx="-1472.8" cy="989.9" r="2.4"/>
</g>
</svg>
