<?xml version="1.0" encoding="utf-8"?>
<!-- Generator: Adobe Illustrator 19.2.1, SVG Export Plug-In . SVG Version: 6.00 Build 0)  -->
<svg version="1.1" id="Layer_1" xmlns="http://www.w3.org/2000/svg" xmlns:xlink="http://www.w3.org/1999/xlink" x="0px" y="0px"
	 viewBox="0 0 50.8 50.8" style="enable-background:new 0 0 50.8 50.8;" xml:space="preserve">
<style type="text/css">
	.st0{fill:#EDF3F2;}
</style>
<g>
	<path class="st0" d="M48.3,27.1L48.3,27.1c-0.1,0.7-0.1,1.3-0.2,1.9c-0.1,0.5,0.3,1,0.8,1.1c0.5,0.1,1-0.3,1.1-0.8
		c0.1-0.7,0.2-1.3,0.2-2l0-0.1c0-0.5-0.4-1-0.9-1C48.8,26.2,48.3,26.6,48.3,27.1L48.3,27.1z M48.1,21.6c0.1,0.6,0.2,1.2,0.2,1.8
		c0,0.5,0.5,0.9,1.1,0.9c0.5,0,0.9-0.5,0.9-1.1c-0.1-0.7-0.1-1.3-0.3-2c-0.1-0.5-0.6-0.9-1.1-0.8C48.3,20.6,48,21.1,48.1,21.6
		L48.1,21.6z M46.5,16.4c0.2,0.6,0.5,1.1,0.7,1.7c0.2,0.5,0.7,0.8,1.2,0.6c0.5-0.2,0.8-0.7,0.6-1.2c-0.2-0.6-0.5-1.3-0.7-1.9
		c-0.2-0.5-0.8-0.7-1.3-0.5C46.5,15.3,46.3,15.9,46.5,16.4L46.5,16.4z M43.7,11.6c0.4,0.5,0.7,1,1.1,1.5c0.3,0.5,0.9,0.6,1.3,0.3
		c0.5-0.3,0.6-0.9,0.3-1.3c-0.4-0.6-0.7-1.1-1.1-1.6c-0.3-0.4-0.9-0.5-1.4-0.2C43.5,10.6,43.4,11.2,43.7,11.6L43.7,11.6z M39.9,7.7
		c0.5,0.4,0.9,0.8,1.4,1.2c0.4,0.4,1,0.4,1.4,0c0.4-0.4,0.4-1,0-1.4c-0.5-0.5-1-0.9-1.5-1.3c-0.4-0.3-1-0.3-1.4,0.1
		C39.4,6.7,39.5,7.3,39.9,7.7L39.9,7.7z M9.6,9.1c0.4-0.4,0.9-0.8,1.4-1.2c0.4-0.3,0.5-1,0.1-1.4C10.8,6,10.2,6,9.8,6.3
		c-0.5,0.4-1,0.9-1.5,1.3C7.9,8,7.9,8.7,8.3,9C8.6,9.4,9.3,9.4,9.6,9.1L9.6,9.1z M6.2,13.3c0.3-0.5,0.7-1,1-1.5
		c0.3-0.4,0.2-1-0.2-1.4c-0.4-0.3-1-0.2-1.4,0.2c-0.4,0.5-0.8,1.1-1.1,1.6c-0.3,0.5-0.1,1.1,0.3,1.3C5.3,13.9,5.9,13.8,6.2,13.3
		L6.2,13.3z M3.9,18.3c0.2-0.6,0.4-1.2,0.6-1.7c0.2-0.5,0-1.1-0.5-1.3c-0.5-0.2-1.1,0-1.3,0.5c-0.3,0.6-0.5,1.2-0.7,1.9
		c-0.2,0.5,0.1,1.1,0.6,1.2S3.7,18.8,3.9,18.3L3.9,18.3z M2.8,23.7L2.8,23.7c0.1-0.6,0.1-1.2,0.2-1.8c0.1-0.5-0.3-1-0.8-1.1
		c-0.5-0.1-1,0.3-1.1,0.8c-0.1,0.6-0.2,1.3-0.2,1.9l0,0.1c0,0.5,0.4,1,0.9,1C2.3,24.7,2.7,24.3,2.8,23.7L2.8,23.7z M3,29.2
		c-0.1-0.6-0.2-1.2-0.2-1.8c0-0.5-0.5-0.9-1.1-0.9c-0.5,0-0.9,0.5-0.9,1.1c0.1,0.7,0.1,1.3,0.2,2c0.1,0.5,0.6,0.9,1.1,0.8
		C2.8,30.2,3.1,29.7,3,29.2L3,29.2z M4.6,34.5c-0.2-0.6-0.5-1.1-0.7-1.7c-0.2-0.5-0.7-0.8-1.2-0.6c-0.5,0.2-0.8,0.7-0.6,1.2
		c0.2,0.6,0.5,1.3,0.7,1.9C3,35.8,3.6,36,4.1,35.8C4.6,35.6,4.8,35,4.6,34.5L4.6,34.5z M7.4,39.2c-0.4-0.5-0.7-1-1.1-1.5
		C6,37.3,5.4,37.1,5,37.4c-0.5,0.3-0.6,0.9-0.3,1.3c0.4,0.6,0.7,1.1,1.1,1.6c0.3,0.4,0.9,0.5,1.4,0.2C7.6,40.3,7.7,39.7,7.4,39.2
		L7.4,39.2z M11.2,43.2c-0.5-0.4-0.9-0.8-1.4-1.2c-0.4-0.4-1-0.4-1.4,0c-0.4,0.4-0.4,1,0,1.4c0.5,0.5,1,0.9,1.5,1.3
		c0.4,0.3,1,0.3,1.4-0.1C11.7,44.1,11.6,43.5,11.2,43.2z M15.8,46.1c-0.6-0.3-1.1-0.5-1.6-0.8c-0.5-0.3-1.1-0.1-1.3,0.4
		c-0.3,0.5-0.1,1.1,0.4,1.3c0.6,0.3,1.2,0.6,1.8,0.9c0.5,0.2,1.1,0,1.3-0.5C16.5,46.9,16.3,46.3,15.8,46.1L15.8,46.1z M21.1,47.8
		c-0.6-0.1-1.2-0.3-1.8-0.4c-0.5-0.1-1.1,0.2-1.2,0.7c-0.1,0.5,0.2,1.1,0.7,1.2c0.6,0.2,1.3,0.3,1.9,0.5c0.5,0.1,1-0.2,1.1-0.8
		C21.9,48.4,21.6,47.9,21.1,47.8L21.1,47.8z M26.6,48.2c-0.6,0-1.2,0-1.8,0c-0.5,0-1,0.4-1,0.9c0,0.5,0.4,1,0.9,1c0.7,0,1.3,0,2,0
		c0.5,0,1-0.5,0.9-1C27.5,48.6,27.1,48.2,26.6,48.2L26.6,48.2z M32,47.3c-0.6,0.2-1.2,0.3-1.8,0.4c-0.5,0.1-0.9,0.6-0.8,1.2
		c0.1,0.5,0.6,0.9,1.2,0.8c0.7-0.1,1.3-0.3,1.9-0.5c0.5-0.2,0.8-0.7,0.7-1.2S32.5,47.2,32,47.3L32,47.3z M37,45.2
		c-0.5,0.3-1.1,0.6-1.6,0.9c-0.5,0.2-0.7,0.8-0.5,1.3c0.2,0.5,0.8,0.7,1.3,0.5c0.6-0.3,1.2-0.6,1.8-0.9c0.5-0.3,0.6-0.9,0.4-1.3
		C38.1,45.1,37.5,44.9,37,45.2L37,45.2z M41.4,41.9c-0.4,0.4-0.9,0.8-1.4,1.2c-0.4,0.3-0.5,1-0.1,1.4c0.3,0.4,1,0.5,1.4,0.1
		c0.5-0.4,1-0.9,1.5-1.3c0.4-0.4,0.4-1,0-1.4C42.4,41.5,41.8,41.5,41.4,41.9z M44.9,37.6c-0.3,0.5-0.7,1-1,1.5
		c-0.3,0.4-0.2,1,0.2,1.4c0.4,0.3,1,0.2,1.4-0.2c0.4-0.5,0.8-1.1,1.1-1.6c0.3-0.5,0.1-1.1-0.3-1.3C45.8,37,45.2,37.1,44.9,37.6
		L44.9,37.6z M47.2,32.6c-0.2,0.6-0.4,1.2-0.6,1.7c-0.2,0.5,0,1.1,0.5,1.3c0.5,0.2,1.1,0,1.3-0.5c0.3-0.6,0.5-1.2,0.7-1.9
		c0.2-0.5-0.1-1.1-0.6-1.2C47.9,31.8,47.4,32.1,47.2,32.6L47.2,32.6z"/>
</g>
</svg>
