<?xml version="1.0" encoding="utf-8"?>
<!-- Generator: Adobe Illustrator 19.1.0, SVG Export Plug-In . SVG Version: 6.00 Build 0)  -->
<svg version="1.1" id="Layer_1" xmlns="http://www.w3.org/2000/svg" xmlns:xlink="http://www.w3.org/1999/xlink" x="0px" y="0px"
	 viewBox="0 0 93.7 93.7" style="enable-background:new 0 0 93.7 93.7;" xml:space="preserve">
<style type="text/css">
	.st0{fill:#EDF3F2;}
</style>
<g>
	<g>
		<g>
			<g>
				<g>
					<path class="st0" d="M92.8,51.7c-0.4,0-0.7-0.4-0.7-0.8c0-0.4,0.3-0.7,0.7-0.6s0.7,0.4,0.7,0.8C93.5,51.4,93.2,51.7,92.8,51.7z
						"/>
				</g>
				<g>
					<path class="st0" d="M92.1,56.4c-0.4-0.1-0.6-0.4-0.6-0.8c0.1-0.4,0.4-0.6,0.8-0.6c0.4,0.1,0.6,0.4,0.6,0.8
						C92.9,56.2,92.5,56.4,92.1,56.4z"/>
				</g>
				<g>
					<path class="st0" d="M90.9,61c-0.4-0.1-0.5-0.5-0.5-0.9c0.1-0.4,0.5-0.6,0.8-0.5s0.6,0.5,0.5,0.9C91.7,60.9,91.2,61.1,90.9,61z
						"/>
				</g>
				<g>
					<path class="st0" d="M89.2,65.4c-0.4-0.2-0.5-0.6-0.4-0.9c0.1-0.4,0.5-0.5,0.9-0.4c0.4,0.1,0.5,0.6,0.4,0.9
						C90,65.4,89.5,65.6,89.2,65.4z"/>
				</g>
				<g>
					<path class="st0" d="M87.1,69.7c-0.3-0.2-0.4-0.6-0.2-0.9c0.2-0.3,0.6-0.5,0.9-0.3c0.3,0.2,0.5,0.6,0.3,1
						C87.8,69.7,87.4,69.9,87.1,69.7z"/>
				</g>
				<g>
					<path class="st0" d="M84.5,73.7c-0.3-0.2-0.4-0.7-0.2-1c0.2-0.3,0.7-0.4,1-0.2c0.3,0.2,0.4,0.7,0.2,1
						C85.3,73.8,84.8,73.9,84.5,73.7z"/>
				</g>
				<g>
					<path class="st0" d="M81.5,77.4c-0.3-0.3-0.3-0.7-0.1-1c0.3-0.3,0.7-0.3,1-0.1c0.3,0.2,0.3,0.7,0.1,1
						C82.3,77.6,81.8,77.7,81.5,77.4z"/>
				</g>
				<g>
					<path class="st0" d="M78.2,80.8c-0.3-0.3-0.2-0.7,0-1c0.3-0.3,0.7-0.2,1,0c0.3,0.3,0.3,0.7,0,1C78.9,81.1,78.5,81.1,78.2,80.8z
						"/>
				</g>
				<g>
					<path class="st0" d="M74.6,83.8c-0.2-0.3-0.2-0.7,0.1-1c0.3-0.2,0.7-0.2,1,0.1c0.2,0.3,0.2,0.7-0.1,1
						C75.2,84.2,74.8,84.2,74.6,83.8z"/>
				</g>
				<g>
					<path class="st0" d="M70.6,86.5c-0.2-0.3-0.1-0.8,0.2-1c0.3-0.2,0.8-0.1,1,0.2c0.2,0.3,0.1,0.8-0.2,1S70.8,86.8,70.6,86.5z"/>
				</g>
				<g>
					<path class="st0" d="M66.4,88.7c-0.2-0.3,0-0.8,0.3-0.9c0.3-0.2,0.8,0,0.9,0.3c0.2,0.3,0,0.8-0.3,0.9
						C67,89.2,66.6,89.1,66.4,88.7z"/>
				</g>
				<g>
					<path class="st0" d="M62,90.5c-0.1-0.4,0.1-0.8,0.4-0.9c0.4-0.1,0.8,0.1,0.9,0.4s0,0.8-0.4,0.9S62.1,90.9,62,90.5z"/>
				</g>
				<g>
					<path class="st0" d="M57.5,91.9c-0.1-0.4,0.1-0.8,0.5-0.9c0.4-0.1,0.7,0.1,0.8,0.5c0.1,0.4-0.1,0.8-0.5,0.9
						C57.9,92.5,57.5,92.2,57.5,91.9z"/>
				</g>
				<g>
					<path class="st0" d="M52.8,92.7c0-0.4,0.2-0.7,0.6-0.8c0.4-0.1,0.7,0.2,0.8,0.6s-0.2,0.7-0.6,0.8
						C53.2,93.4,52.8,93.1,52.8,92.7z"/>
				</g>
				<g>
					<path class="st0" d="M48,93.1c0-0.4,0.3-0.7,0.7-0.7s0.7,0.3,0.7,0.7c0,0.4-0.3,0.7-0.7,0.7C48.4,93.8,48,93.5,48,93.1z"/>
				</g>
				<g>
					<path class="st0" d="M43.3,93c0-0.4,0.4-0.7,0.7-0.7c0.4,0,0.7,0.3,0.7,0.7c0,0.4-0.3,0.7-0.7,0.7C43.5,93.7,43.2,93.3,43.3,93
						z"/>
				</g>
				<g>
					<path class="st0" d="M38.6,92.4c0.1-0.4,0.4-0.6,0.8-0.6c0.4,0.1,0.6,0.4,0.6,0.8c-0.1,0.4-0.4,0.6-0.8,0.6
						C38.8,93.1,38.5,92.7,38.6,92.4z"/>
				</g>
				<g>
					<path class="st0" d="M33.9,91.3c0.1-0.4,0.5-0.6,0.9-0.5c0.4,0.1,0.6,0.5,0.5,0.8c-0.1,0.4-0.5,0.6-0.9,0.5
						C34,92,33.8,91.6,33.9,91.3z"/>
				</g>
				<g>
					<path class="st0" d="M29.4,89.7c0.1-0.4,0.6-0.5,0.9-0.4s0.5,0.5,0.4,0.9c-0.1,0.4-0.5,0.5-0.9,0.4
						C29.5,90.5,29.3,90.1,29.4,89.7z"/>
				</g>
				<g>
					<path class="st0" d="M25.1,87.7c0.2-0.3,0.6-0.5,0.9-0.3c0.3,0.2,0.5,0.6,0.3,0.9c-0.2,0.3-0.6,0.5-0.9,0.3
						C25.1,88.5,24.9,88,25.1,87.7z"/>
				</g>
				<g>
					<path class="st0" d="M21,85.3c0.2-0.3,0.7-0.4,1-0.2c0.3,0.2,0.4,0.6,0.2,0.9c-0.2,0.3-0.6,0.4-1,0.2S20.8,85.6,21,85.3z"/>
				</g>
				<g>
					<path class="st0" d="M17.2,82.4c0.2-0.3,0.7-0.3,1-0.1c0.3,0.2,0.4,0.7,0.1,1c-0.2,0.3-0.7,0.4-1,0.1
						C17,83.2,17,82.7,17.2,82.4z"/>
				</g>
				<g>
					<path class="st0" d="M13.8,79.2c0.3-0.3,0.7-0.3,1,0c0.3,0.3,0.3,0.7,0,1c-0.3,0.3-0.7,0.3-1,0C13.5,79.9,13.5,79.4,13.8,79.2z
						"/>
				</g>
				<g>
					<path class="st0" d="M10.6,75.6c0.3-0.2,0.7-0.2,1,0.1c0.2,0.3,0.2,0.7-0.1,1c-0.3,0.2-0.8,0.2-1-0.1
						C10.3,76.3,10.3,75.8,10.6,75.6z"/>
				</g>
				<g>
					<path class="st0" d="M7.9,71.7c0.3-0.2,0.7-0.1,0.9,0.2c0.2,0.3,0.1,0.8-0.2,1c-0.3,0.2-0.8,0.1-1-0.2
						C7.4,72.3,7.5,71.9,7.9,71.7z"/>
				</g>
				<g>
					<path class="st0" d="M5.5,67.6c0.3-0.2,0.8,0,0.9,0.3c0.2,0.3,0,0.8-0.3,1c-0.3,0.2-0.8,0-0.9-0.3C5,68.2,5.2,67.7,5.5,67.6z"
						/>
				</g>
				<g>
					<path class="st0" d="M3.6,63.2c0.4-0.1,0.8,0,0.9,0.4c0.1,0.4-0.1,0.8-0.4,0.9c-0.4,0.1-0.8,0-0.9-0.4
						C3.1,63.7,3.3,63.3,3.6,63.2z"/>
				</g>
				<g>
					<path class="st0" d="M2.2,58.7c0.4-0.1,0.8,0.1,0.8,0.5c0.1,0.4-0.1,0.8-0.5,0.9s-0.7-0.1-0.8-0.5C1.6,59.2,1.8,58.8,2.2,58.7z
						"/>
				</g>
				<g>
					<path class="st0" d="M1.2,54C1.6,54,2,54.2,2,54.6c0.1,0.4-0.2,0.7-0.6,0.8c-0.4,0.1-0.7-0.2-0.8-0.6C0.6,54.4,0.8,54.1,1.2,54
						z"/>
				</g>
				<g>
					<path class="st0" d="M0.7,49.3c0.4,0,0.7,0.3,0.7,0.7s-0.3,0.7-0.7,0.7c-0.4,0-0.7-0.3-0.7-0.7S0.3,49.3,0.7,49.3z"/>
				</g>
				<g>
					<path class="st0" d="M0.7,44.5c0.4,0,0.7,0.3,0.7,0.7c0,0.4-0.3,0.7-0.7,0.7c-0.4,0-0.7-0.3-0.7-0.7C0,44.8,0.3,44.5,0.7,44.5z
						"/>
				</g>
				<g>
					<path class="st0" d="M1.2,39.8c0.4,0.1,0.6,0.4,0.6,0.8S1.4,41.2,1,41.2c-0.4,0-0.6-0.4-0.6-0.8C0.5,40,0.8,39.7,1.2,39.8z"/>
				</g>
				<g>
					<path class="st0" d="M2.2,35.1c0.4,0.1,0.6,0.5,0.5,0.8c-0.1,0.4-0.5,0.6-0.9,0.5c-0.4-0.1-0.6-0.5-0.5-0.8
						C1.4,35.3,1.8,35,2.2,35.1z"/>
				</g>
				<g>
					<path class="st0" d="M3.6,30.6C4,30.7,4.2,31.2,4,31.5c-0.1,0.4-0.5,0.5-0.9,0.4c-0.4-0.1-0.6-0.5-0.4-0.9
						C2.9,30.7,3.3,30.5,3.6,30.6z"/>
				</g>
				<g>
					<path class="st0" d="M5.5,26.3c0.3,0.2,0.5,0.6,0.3,0.9c-0.2,0.3-0.6,0.5-0.9,0.3c-0.4-0.2-0.5-0.6-0.3-0.9
						C4.8,26.2,5.2,26.1,5.5,26.3z"/>
				</g>
				<g>
					<path class="st0" d="M7.9,22.1c0.3,0.2,0.4,0.6,0.2,1c-0.2,0.3-0.6,0.4-1,0.2c-0.3-0.2-0.4-0.6-0.2-1C7.1,22,7.5,21.9,7.9,22.1
						z"/>
				</g>
				<g>
					<path class="st0" d="M10.6,18.2c0.3,0.2,0.4,0.7,0.1,1c-0.2,0.3-0.7,0.4-1,0.1c-0.3-0.2-0.4-0.7-0.1-1
						C9.9,18.1,10.3,18,10.6,18.2z"/>
				</g>
				<g>
					<path class="st0" d="M13.8,14.7c0.3,0.3,0.3,0.7,0,1s-0.7,0.3-1,0s-0.3-0.7,0-1C13,14.4,13.5,14.4,13.8,14.7z"/>
				</g>
				<g>
					<path class="st0" d="M17.2,11.4c0.2,0.3,0.2,0.7-0.1,1s-0.7,0.2-1-0.1c-0.3-0.3-0.2-0.7,0.1-1C16.6,11.1,17,11.1,17.2,11.4z"/>
				</g>
				<g>
					<path class="st0" d="M21,8.5c0.2,0.3,0.1,0.8-0.2,1c-0.3,0.2-0.7,0.2-1-0.2s-0.2-0.8,0.2-1C20.4,8.2,20.8,8.2,21,8.5z"/>
				</g>
				<g>
					<path class="st0" d="M25.1,6.1c0.2,0.3,0,0.7-0.3,0.9c-0.3,0.2-0.7,0.1-0.9-0.2c-0.2-0.3-0.1-0.8,0.3-1
						C24.5,5.6,24.9,5.8,25.1,6.1z"/>
				</g>
				<g>
					<path class="st0" d="M29.4,4.1c0.1,0.4,0,0.7-0.4,0.9c-0.3,0.2-0.7,0-0.9-0.3s0-0.8,0.4-0.9C28.9,3.6,29.3,3.7,29.4,4.1z"/>
				</g>
				<g>
					<path class="st0" d="M33.9,2.5c0.1,0.4-0.1,0.7-0.5,0.8c-0.4,0.1-0.7-0.1-0.9-0.4C32.5,2.6,32.7,2.2,33,2
						C33.4,1.9,33.8,2.2,33.9,2.5z"/>
				</g>
				<g>
					<path class="st0" d="M38.6,1.5c0.1,0.4-0.2,0.7-0.6,0.8c-0.4,0-0.7-0.2-0.8-0.5c-0.1-0.4,0.2-0.8,0.6-0.8
						C38.1,0.8,38.5,1.1,38.6,1.5z"/>
				</g>
				<g>
					<path class="st0" d="M43.3,0.9c0,0.4-0.3,0.7-0.6,0.7c-0.4,0-0.7-0.3-0.8-0.6c0-0.4,0.2-0.7,0.6-0.8
						C42.9,0.2,43.3,0.5,43.3,0.9z"/>
				</g>
				<g>
					<path class="st0" d="M48,0.7c0,0.4-0.3,0.7-0.7,0.7c-0.4,0-0.7-0.3-0.7-0.7c0-0.4,0.3-0.7,0.7-0.7C47.7,0,48,0.3,48,0.7z"/>
				</g>
				<g>
					<path class="st0" d="M52.8,1.1c-0.1,0.4-0.4,0.6-0.8,0.6c-0.4-0.1-0.7-0.4-0.6-0.8c0-0.4,0.4-0.7,0.8-0.6
						C52.6,0.4,52.8,0.7,52.8,1.1z"/>
				</g>
				<g>
					<path class="st0" d="M57.5,1.9c-0.1,0.4-0.5,0.6-0.8,0.5C56.3,2.4,56,2,56.1,1.6c0.1-0.4,0.4-0.6,0.8-0.5
						C57.3,1.2,57.5,1.6,57.5,1.9z"/>
				</g>
				<g>
					<path class="st0" d="M62,3.3c-0.1,0.4-0.5,0.6-0.9,0.4c-0.4-0.1-0.6-0.5-0.4-0.9s0.5-0.6,0.9-0.4C62,2.5,62.1,2.9,62,3.3z"/>
				</g>
				<g>
					<path class="st0" d="M66.4,5.1c-0.2,0.3-0.6,0.5-0.9,0.3c-0.3-0.2-0.5-0.6-0.3-0.9c0.2-0.4,0.6-0.5,0.9-0.3
						C66.4,4.3,66.6,4.7,66.4,5.1z"/>
				</g>
				<g>
					<path class="st0" d="M70.6,7.3c-0.2,0.3-0.6,0.4-0.9,0.2c-0.3-0.2-0.4-0.6-0.2-1c0.2-0.3,0.6-0.4,0.9-0.2S70.8,7,70.6,7.3z"/>
				</g>
				<g>
					<path class="st0" d="M74.6,10c-0.2,0.3-0.7,0.4-1,0.1c-0.3-0.2-0.4-0.7-0.1-1s0.7-0.4,1-0.1C74.7,9.2,74.8,9.7,74.6,10z"/>
				</g>
				<g>
					<path class="st0" d="M78.2,13c-0.3,0.3-0.7,0.3-1,0c-0.3-0.3-0.3-0.7-0.1-1c0.3-0.3,0.7-0.3,1,0S78.5,12.7,78.2,13z"/>
				</g>
				<g>
					<path class="st0" d="M81.5,16.4c-0.3,0.3-0.7,0.2-1,0c-0.3-0.3-0.2-0.7,0-1c0.3-0.3,0.7-0.2,1,0C81.8,15.7,81.8,16.2,81.5,16.4
						z"/>
				</g>
				<g>
					<path class="st0" d="M84.5,20.1c-0.3,0.2-0.8,0.2-1-0.1c-0.2-0.3-0.2-0.7,0.1-1s0.7-0.2,1,0.1C84.9,19.5,84.8,19.9,84.5,20.1z"
						/>
				</g>
				<g>
					<path class="st0" d="M87.1,24.1c-0.3,0.2-0.8,0.1-1-0.2c-0.2-0.3-0.1-0.8,0.2-1s0.8-0.1,1,0.2C87.5,23.5,87.4,24,87.1,24.1z"/>
				</g>
				<g>
					<path class="st0" d="M89.2,28.4c-0.4,0.2-0.8,0-0.9-0.3c-0.2-0.3,0-0.8,0.3-0.9c0.3-0.2,0.8,0,0.9,0.3
						C89.7,27.8,89.6,28.2,89.2,28.4z"/>
				</g>
				<g>
					<path class="st0" d="M90.9,32.8c-0.4,0.1-0.8-0.1-0.9-0.4s0.1-0.8,0.4-0.9s0.8,0.1,0.9,0.4C91.4,32.3,91.3,32.7,90.9,32.8z"/>
				</g>
				<g>
					<path class="st0" d="M92.1,37.4c-0.4,0.1-0.8-0.2-0.9-0.5s0.1-0.7,0.5-0.8c0.4-0.1,0.8,0.1,0.9,0.5
						C92.7,37,92.5,37.4,92.1,37.4z"/>
				</g>
				<g>
					<path class="st0" d="M92.8,42.2c-0.4,0-0.7-0.2-0.8-0.6c-0.1-0.4,0.2-0.7,0.6-0.8c0.4-0.1,0.7,0.2,0.8,0.6
						C93.5,41.8,93.2,42.1,92.8,42.2z"/>
				</g>
				<g>
					<path class="st0" d="M93.1,46.9c-0.4,0-0.7-0.3-0.7-0.7s0.3-0.7,0.7-0.7c0.4,0,0.7,0.3,0.7,0.7S93.5,46.9,93.1,46.9z"/>
				</g>
			</g>
		</g>
	</g>
</g>
</svg>
