<?xml version="1.0" encoding="utf-8"?>
<!-- Generator: Adobe Illustrator 19.1.0, SVG Export Plug-In . SVG Version: 6.00 Build 0)  -->
<svg version="1.1" id="Layer_1" xmlns="http://www.w3.org/2000/svg" xmlns:xlink="http://www.w3.org/1999/xlink" x="0px" y="0px"
	 viewBox="-1485 987 28 28" style="enable-background:new -1485 987 28 28;" xml:space="preserve">
<style type="text/css">
	.st0{fill:#17181C;}
</style>
<g>
	<path class="st0" d="M-1465.4,991.6c0.1,0,0.3,0,0.4,0c0.6,0.1,1,0.2,1.5,0.4c0.4,0.1,0.6,0.3,0.9,0.6c0.3,0.2,0.5,0.4,0.6,0.6
		c0.1,0.1,0.2,0.1,0.3,0.1c0.2-0.2,0.4-0.3,0.7-0.3c0.4-0.1,0.7-0.3,1.1-0.4c0.4-0.2,0.7-0.4,1-0.6c0,0,0,0,0.1,0v0.1
		c-0.2,0.4-0.4,0.9-0.6,1.3c-0.2,0.3-0.4,0.5-0.6,0.6c-0.3,0.3-0.6,0.5-0.8,0.7c0,0,0,0-0.1,0.1h0.1c0.4-0.1,0.8-0.1,1.2-0.3
		c0.5-0.2,0.9-0.3,1.4-0.5c0,0,0,0,0.1,0v0.1c-0.2,0.2-0.4,0.5-0.6,0.6c-0.4,0.5-0.8,0.9-1.3,1.4c-0.1-0.1-0.2,0-0.3,0.1
		c-0.2,0.1-0.3,0.2-0.3,0.5c0,0.1,0,0.2,0,0.4c0,0.5-0.1,0.9-0.1,1.4c-0.1,0.2,0,0.4-0.1,0.5c0,0.2,0,0.3-0.1,0.5
		c-0.1,0.5-0.2,0.9-0.4,1.4c0,0.3-0.2,0.5-0.2,0.7c0,0.2-0.1,0.4-0.2,0.6c-0.3,0.6-0.5,1.2-0.8,1.7s-0.5,0.8-0.7,1.3
		c-0.2,0.4-0.5,0.6-0.7,1c-0.4,0.6-0.8,0.9-1.3,1.4c-0.3,0.3-0.5,0.5-0.7,0.6c-0.3,0.2-0.5,0.5-0.7,0.6c-0.4,0.4-0.8,0.6-1.2,0.7
		c-0.4,0.3-0.8,0.5-1.3,0.6c-0.4,0.2-0.7,0.3-1.1,0.5c-0.2,0.1-0.4,0.1-0.6,0.2c-0.2,0.1-0.4,0.1-0.6,0.2c-0.3,0-0.6,0.1-0.8,0.1
		c-0.1,0-0.2,0-0.3,0.1c-0.1,0-0.2,0-0.3,0.1c0,0,0,0-0.1,0c-0.2,0-0.3,0-0.5,0.1c-0.4,0.1-0.8,0.1-1.2,0.1s-0.8,0-1.2,0
		c-0.2,0-0.5,0-0.6-0.1c-0.3-0.1-0.6-0.1-0.8-0.1c-0.3-0.1-0.5-0.1-0.7-0.2c-0.6-0.1-1.3-0.4-1.9-0.6c-0.4-0.1-0.6-0.3-0.9-0.4
		c-0.1-0.1-0.2-0.1-0.4-0.2c-0.2-0.1-0.4-0.2-0.6-0.3c-0.2-0.1-0.4-0.2-0.6-0.3c0,0,0,0-0.1-0.1h0.1c0.2,0,0.4-0.1,0.6,0.1h0.1
		c0.6,0,1-0.1,1.5-0.1c0.1,0,0.3-0.1,0.4-0.1c0.1,0,0.3-0.1,0.4-0.1c0.1,0,0.2,0,0.3,0c0.5-0.2,0.9-0.3,1.4-0.5
		c0.6-0.4,1-0.6,1.4-0.8c0.4-0.2,0.7-0.5,1.1-0.7c0.1,0,0.1-0.1,0.2-0.1l0,0c0,0,0,0-0.1,0c-0.2,0-0.5,0-0.6-0.1
		c-0.3,0-0.6-0.1-0.7-0.2c-0.5-0.2-0.8-0.4-1.3-0.6c-0.2-0.1-0.4-0.2-0.4-0.3c-0.3-0.3-0.6-0.6-0.7-0.8c-0.2-0.3-0.4-0.6-0.5-0.9
		c0-0.1-0.1-0.2-0.1-0.3v-0.1c0-0.1,0-0.1,0.1-0.1c0.3,0,0.6,0,0.9,0.1c0.2,0,0.3-0.1,0.5-0.1c0.2,0,0.3-0.1,0.5-0.1
		c0,0,0.1,0,0.1-0.1c0,0,0,0,0.1,0l0,0c-0.6-0.1-1-0.3-1.5-0.6c-0.3-0.1-0.5-0.2-0.6-0.4c-0.2-0.1-0.4-0.3-0.6-0.5
		c-0.3-0.3-0.5-0.6-0.6-0.9c-0.3-0.4-0.4-0.8-0.6-1.3c0-0.1,0-0.3-0.1-0.4c0-0.3-0.1-0.6-0.1-0.9c0-0.1,0-0.1,0.1,0
		c0.3,0.2,0.6,0.3,1,0.4c0.1,0.3,0.2,0.3,0.4,0.3c0.1,0,0.2,0,0.3,0.1c0.1,0,0.2,0,0.3,0h0.1c0,0,0-0.1-0.1-0.1
		c-0.2-0.1-0.4-0.3-0.6-0.5c-0.5-0.5-0.7-0.9-1-1.6c-0.2-0.2-0.3-0.6-0.4-1c-0.1-0.2-0.1-0.5-0.1-0.8c0-0.1,0-0.3,0-0.4
		c0-0.6,0.2-1.3,0.6-1.9l0,0c0.1-0.1,0-0.2,0.1-0.2s0.2,0.1,0.2,0.2c0,0.2,0.2,0.4,0.4,0.5c0.2,0.2,0.5,0.4,0.6,0.6
		c0.3,0.1,0.5,0.4,0.8,0.6c0.3,0.1,0.5,0.3,0.7,0.5c0.3,0.4,0.6,0.5,1,0.7c0.2,0.1,0.5,0.3,0.7,0.4c0.3,0.1,0.5,0.2,0.7,0.3
		c0.2,0.1,0.4,0.2,0.6,0.3c0.3,0.1,0.6,0.2,0.9,0.4c0.4,0.1,0.7,0.2,1.2,0.3c0.3,0.1,0.5,0.1,0.7,0.1c0.4,0.1,0.6,0.1,1,0.1
		c0.2,0.1,0.5,0,0.6,0.1c0.1,0,0.1,0,0.1-0.1c0-0.2-0.1-0.4-0.1-0.5c0-0.4,0-0.6,0-1c0-0.3,0.1-0.6,0.2-0.8c0.1-0.3,0.2-0.6,0.4-0.9
		c0.2-0.3,0.4-0.6,0.6-0.8c0-0.1,0-0.2,0.1-0.3c0.5-0.5,0.9-0.8,1.6-1.1c0.1-0.2,0.2-0.2,0.4-0.3c0.2-0.1,0.3-0.1,0.5-0.2
		c0.2,0,0.3,0,0.5-0.1c0.1,0,0.3-0.1,0.4-0.1C-1465.7,991.6-1465.6,991.6-1465.4,991.6z"/>
</g>
</svg>
