<?xml version="1.0" encoding="utf-8"?>
<!-- Generator: Adobe Illustrator 19.1.0, SVG Export Plug-In . SVG Version: 6.00 Build 0)  -->
<svg version="1.1" id="Layer_1" xmlns="http://www.w3.org/2000/svg" xmlns:xlink="http://www.w3.org/1999/xlink" x="0px" y="0px"
	 viewBox="0 0 28 28" style="enable-background:new 0 0 28 28;" xml:space="preserve">
<style type="text/css">
	.st0{fill:#EDF3F2;}
</style>
<path class="st0" d="M25.1,4.6c-0.5-0.1-1-0.2-1.5-0.2C20.4,4.1,17.2,4.1,12.9,4c-1.3,0-3.8,0.1-6.2,0.2c-1.1,0-2.2,0.1-3.2,0.2
	C2.2,4.6,1.2,5.3,0.7,6.5C0.6,6.8,0.5,7.2,0.4,7.5c-0.3,1-0.3,2.1-0.4,3.2c-0.1,2.6-0.1,5.2,0.1,7.8c0.1,0.9,0.2,1.7,0.5,2.5
	c0.4,1.2,1.2,1.9,2.4,2.2c0.6,0.1,1.2,0.2,1.7,0.3c2.1,0.1,4.2,0.2,6.4,0.2c2.7,0,5.4,0,8.1,0c1.6,0,3.2-0.1,4.8-0.2
	c1.6-0.1,2.8-0.9,3.3-2.5c0.3-0.9,0.4-1.8,0.5-2.7c0.2-2.7,0.2-5.5,0-8.2c0-1-0.1-2-0.5-3C27.1,5.8,26.3,4.9,25.1,4.6z M18.6,14
	c-0.6,0.4-1.2,0.7-1.7,1.1c-1.8,1.1-3.7,2.2-5.5,3.4c0,0,0,0-0.1,0c-0.2,0.1-0.2,0.1-0.2-0.2c0-1.5,0-2.9,0-4.4h0c0-1.5,0-2.9,0-4.4
	c0-0.3,0-0.4,0.3-0.2c2.4,1.5,4.8,2.9,7.2,4.4c0,0,0,0,0.1,0C18.8,13.8,18.8,13.9,18.6,14z"/>
</svg>
